<svg width="455" height="214" viewBox="0 0 455 214" fill="none" xmlns="http://www.w3.org/2000/svg">
<path d="M260.171 71.372C252.919 71.372 246.386 69.8367 240.571 66.766C234.822 63.6953 230.281 59.4487 226.949 54.026C223.682 48.6033 222.049 42.4947 222.049 35.7C222.049 28.9053 223.682 22.7967 226.949 17.374C230.281 11.9513 234.822 7.70466 240.571 4.63399C246.386 1.56333 252.919 0.0279955 260.171 0.0279955C267.423 0.0279955 273.924 1.56333 279.673 4.63399C285.488 7.70466 290.028 11.9513 293.295 17.374C296.627 22.7967 298.293 28.9053 298.293 35.7C298.293 42.4947 296.627 48.6033 293.295 54.026C290.028 59.4487 285.488 63.6953 279.673 66.766C273.924 69.8367 267.423 71.372 260.171 71.372ZM260.171 55.3C263.634 55.3 266.77 54.4833 269.579 52.85C272.388 51.2167 274.61 48.93 276.243 45.99C277.876 42.9847 278.693 39.5547 278.693 35.7C278.693 31.8453 277.876 28.448 276.243 25.508C274.61 22.5027 272.388 20.1833 269.579 18.55C266.77 16.9167 263.634 16.1 260.171 16.1C256.708 16.1 253.572 16.9167 250.763 18.55C247.954 20.1833 245.732 22.5027 244.099 25.508C242.466 28.448 241.649 31.8453 241.649 35.7C241.649 39.5547 242.466 42.9847 244.099 45.99C245.732 48.93 247.954 51.2167 250.763 52.85C253.572 54.4833 256.708 55.3 260.171 55.3ZM343.05 71.372C332.858 71.372 324.92 68.5953 319.236 63.042C313.617 57.4887 310.808 49.616 310.808 39.424V1.4H330.212V38.836C330.212 49.812 334.557 55.3 343.246 55.3C351.87 55.3 356.182 49.812 356.182 38.836V1.4H375.292V39.424C375.292 49.616 372.45 57.4887 366.766 63.042C361.147 68.5953 353.242 71.372 343.05 71.372ZM421.365 51.772H410.781V70H391.377V1.4H422.737C428.944 1.4 434.334 2.44533 438.907 4.536C443.48 6.56133 447.008 9.50133 449.491 13.356C451.974 17.1453 453.215 21.6207 453.215 26.782C453.215 31.7473 452.039 36.092 449.687 39.816C447.4 43.4747 444.101 46.3493 439.789 48.44L454.587 70H433.811L421.365 51.772ZM433.615 26.782C433.615 23.5807 432.602 21.098 430.577 19.334C428.552 17.57 425.546 16.688 421.561 16.688H410.781V36.778H421.561C425.546 36.778 428.552 35.9287 430.577 34.23C432.602 32.466 433.615 29.9833 433.615 26.782ZM62.4997 212L62.3037 175.642L44.6637 205.238H36.0397L18.4977 176.622V212H0.563735V143.4H16.5377L40.6457 182.992L64.1657 143.4H80.1397L80.3357 212H62.4997ZM97.0057 143.4H116.41V212H97.0057V143.4ZM157.263 213.372C151.709 213.372 146.319 212.686 141.093 211.314C135.866 209.942 131.619 208.113 128.353 205.826L134.723 191.518C137.793 193.543 141.354 195.177 145.405 196.418C149.455 197.659 153.441 198.28 157.361 198.28C164.809 198.28 168.533 196.418 168.533 192.694C168.533 190.734 167.455 189.297 165.299 188.382C163.208 187.402 159.811 186.389 155.107 185.344C149.945 184.233 145.633 183.057 142.171 181.816C138.708 180.509 135.735 178.451 133.253 175.642C130.77 172.833 129.529 169.043 129.529 164.274C129.529 160.093 130.672 156.336 132.959 153.004C135.245 149.607 138.643 146.928 143.151 144.968C147.724 143.008 153.31 142.028 159.909 142.028C164.417 142.028 168.859 142.551 173.237 143.596C177.614 144.576 181.469 146.046 184.801 148.006L178.823 162.412C172.289 158.884 165.952 157.12 159.811 157.12C155.956 157.12 153.147 157.708 151.383 158.884C149.619 159.995 148.737 161.465 148.737 163.294C148.737 165.123 149.782 166.495 151.873 167.41C153.963 168.325 157.328 169.272 161.967 170.252C167.193 171.363 171.505 172.571 174.903 173.878C178.365 175.119 181.338 177.145 183.821 179.954C186.369 182.698 187.643 186.455 187.643 191.224C187.643 195.34 186.499 199.064 184.213 202.396C181.926 205.728 178.496 208.407 173.923 210.432C169.349 212.392 163.796 213.372 157.263 213.372ZM223.654 213.372C218.101 213.372 212.711 212.686 207.484 211.314C202.257 209.942 198.011 208.113 194.744 205.826L201.114 191.518C204.185 193.543 207.745 195.177 211.796 196.418C215.847 197.659 219.832 198.28 223.752 198.28C231.2 198.28 234.924 196.418 234.924 192.694C234.924 190.734 233.846 189.297 231.69 188.382C229.599 187.402 226.202 186.389 221.498 185.344C216.337 184.233 212.025 183.057 208.562 181.816C205.099 180.509 202.127 178.451 199.644 175.642C197.161 172.833 195.92 169.043 195.92 164.274C195.92 160.093 197.063 156.336 199.35 153.004C201.637 149.607 205.034 146.928 209.542 144.968C214.115 143.008 219.701 142.028 226.3 142.028C230.808 142.028 235.251 142.551 239.628 143.596C244.005 144.576 247.86 146.046 251.192 148.006L245.214 162.412C238.681 158.884 232.343 157.12 226.202 157.12C222.347 157.12 219.538 157.708 217.774 158.884C216.01 159.995 215.128 161.465 215.128 163.294C215.128 165.123 216.173 166.495 218.264 167.41C220.355 168.325 223.719 169.272 228.358 170.252C233.585 171.363 237.897 172.571 241.294 173.878C244.757 175.119 247.729 177.145 250.212 179.954C252.76 182.698 254.034 186.455 254.034 191.224C254.034 195.34 252.891 199.064 250.604 202.396C248.317 205.728 244.887 208.407 240.314 210.432C235.741 212.392 230.187 213.372 223.654 213.372ZM265.937 143.4H285.341V212H265.937V143.4ZM336.68 213.372C329.428 213.372 322.895 211.837 317.08 208.766C311.331 205.695 306.79 201.449 303.458 196.026C300.191 190.603 298.558 184.495 298.558 177.7C298.558 170.905 300.191 164.797 303.458 159.374C306.79 153.951 311.331 149.705 317.08 146.634C322.895 143.563 329.428 142.028 336.68 142.028C343.932 142.028 350.433 143.563 356.182 146.634C361.997 149.705 366.537 153.951 369.804 159.374C373.136 164.797 374.802 170.905 374.802 177.7C374.802 184.495 373.136 190.603 369.804 196.026C366.537 201.449 361.997 205.695 356.182 208.766C350.433 211.837 343.932 213.372 336.68 213.372ZM336.68 197.3C340.143 197.3 343.279 196.483 346.088 194.85C348.897 193.217 351.119 190.93 352.752 187.99C354.385 184.985 355.202 181.555 355.202 177.7C355.202 173.845 354.385 170.448 352.752 167.508C351.119 164.503 348.897 162.183 346.088 160.55C343.279 158.917 340.143 158.1 336.68 158.1C333.217 158.1 330.081 158.917 327.272 160.55C324.463 162.183 322.241 164.503 320.608 167.508C318.975 170.448 318.158 173.845 318.158 177.7C318.158 181.555 318.975 184.985 320.608 187.99C322.241 190.93 324.463 193.217 327.272 194.85C330.081 196.483 333.217 197.3 336.68 197.3ZM453.173 143.4V212H437.199L406.917 175.446V212H387.905V143.4H403.879L434.161 179.954V143.4H453.173Z" fill="#1F82A1"/>
<path d="M240.571 66.766L239.864 68.0891L239.871 68.0924L240.571 66.766ZM226.949 54.026L225.664 54.8L225.671 54.8113L226.949 54.026ZM226.949 17.374L225.671 16.5887L225.664 16.6L226.949 17.374ZM240.571 4.634L239.871 3.30758L239.864 3.31088L240.571 4.634ZM279.673 4.634L278.966 5.95712L278.973 5.9604L279.673 4.634ZM293.295 17.374L292.01 18.148L292.017 18.1593L293.295 17.374ZM293.295 54.026L292.017 53.2407L292.01 53.252L293.295 54.026ZM279.673 66.766L278.973 65.4396L278.966 65.4429L279.673 66.766ZM269.579 52.85L270.333 54.1468L269.579 52.85ZM276.243 45.99L277.554 46.7185L277.561 46.7063L276.243 45.99ZM276.243 25.508L274.925 26.2243L274.932 26.2365L276.243 25.508ZM269.579 18.55L270.333 17.2532L269.579 18.55ZM250.763 18.55L250.009 17.2532L250.763 18.55ZM244.099 25.508L245.41 26.2365L245.417 26.2243L244.099 25.508ZM244.099 45.99L242.781 46.7063L242.788 46.7185L244.099 45.99ZM250.763 52.85L251.517 51.5532L250.763 52.85ZM260.171 69.872C253.138 69.872 246.849 68.3849 241.272 65.4396L239.871 68.0924C245.923 71.2885 252.701 72.872 260.171 72.872V69.872ZM241.278 65.4429C235.757 62.4945 231.416 58.4309 228.227 53.2407L225.671 54.8113C229.146 60.4664 233.886 64.8962 239.864 68.0891L241.278 65.4429ZM228.234 53.252C225.118 48.0801 223.549 42.2427 223.549 35.7H220.549C220.549 42.7467 222.246 49.1265 225.664 54.8L228.234 53.252ZM223.549 35.7C223.549 29.1573 225.118 23.3199 228.234 18.148L225.664 16.6C222.246 22.2735 220.549 28.6533 220.549 35.7H223.549ZM228.227 18.1593C231.416 12.9691 235.757 8.90554 241.278 5.95711L239.864 3.31088C233.886 6.50379 229.146 10.9336 225.671 16.5887L228.227 18.1593ZM241.272 5.9604C246.849 3.01512 253.138 1.528 260.171 1.528V-1.472C252.701 -1.472 245.923 0.111542 239.871 3.30759L241.272 5.9604ZM260.171 1.528C267.205 1.528 273.458 3.01519 278.966 5.95711L280.38 3.31088C274.389 0.111469 267.641 -1.472 260.171 -1.472V1.528ZM278.973 5.9604C284.556 8.90873 288.89 12.9685 292.01 18.148L294.58 16.6C291.167 10.9341 286.42 6.5006 280.374 3.30759L278.973 5.9604ZM292.017 18.1593C295.194 23.3296 296.793 29.1631 296.793 35.7H299.793C299.793 28.6476 298.06 22.2637 294.573 16.5887L292.017 18.1593ZM296.793 35.7C296.793 42.2369 295.194 48.0704 292.017 53.2407L294.573 54.8113C298.06 49.1363 299.793 42.7524 299.793 35.7H296.793ZM292.01 53.252C288.89 58.4315 284.556 62.4913 278.973 65.4396L280.374 68.0924C286.42 64.8994 291.167 60.4659 294.58 54.8L292.01 53.252ZM278.966 65.4429C273.458 68.3848 267.205 69.872 260.171 69.872V72.872C267.641 72.872 274.389 71.2885 280.38 68.0891L278.966 65.4429ZM260.171 56.8C263.881 56.8 267.28 55.922 270.333 54.1468L268.825 51.5532C266.26 53.0447 263.387 53.8 260.171 53.8V56.8ZM270.333 54.1468C273.384 52.3727 275.795 49.886 277.554 46.7185L274.932 45.2615C273.425 47.974 271.393 50.0606 268.825 51.5532L270.333 54.1468ZM277.561 46.7063C279.328 43.4544 280.193 39.7726 280.193 35.7H277.193C277.193 39.3367 276.425 42.5149 274.925 45.2737L277.561 46.7063ZM280.193 35.7C280.193 31.6281 279.329 27.9731 277.554 24.7795L274.932 26.2365C276.424 28.9229 277.193 32.0626 277.193 35.7H280.193ZM277.561 24.7917C275.804 21.5581 273.393 19.0321 270.333 17.2532L268.825 19.8468C271.384 21.3345 273.416 23.4472 274.925 26.2243L277.561 24.7917ZM270.333 17.2532C267.28 15.478 263.881 14.6 260.171 14.6V17.6C263.387 17.6 266.26 18.3553 268.825 19.8468L270.333 17.2532ZM260.171 14.6C256.462 14.6 253.063 15.478 250.009 17.2532L251.517 19.8468C254.082 18.3553 256.955 17.6 260.171 17.6V14.6ZM250.009 17.2532C246.949 19.0321 244.539 21.5581 242.781 24.7917L245.417 26.2243C246.926 23.4472 248.958 21.3345 251.517 19.8468L250.009 17.2532ZM242.788 24.7795C241.014 27.9731 240.149 31.6281 240.149 35.7H243.149C243.149 32.0626 243.918 28.9229 245.41 26.2365L242.788 24.7795ZM240.149 35.7C240.149 39.7726 241.014 43.4544 242.781 46.7063L245.417 45.2737C243.918 42.5149 243.149 39.3367 243.149 35.7H240.149ZM242.788 46.7185C244.548 49.886 246.958 52.3727 250.009 54.1468L251.517 51.5532C248.95 50.0606 246.917 47.974 245.41 45.2615L242.788 46.7185ZM250.009 54.1468C253.063 55.922 256.462 56.8 260.171 56.8V53.8C256.955 53.8 254.082 53.0447 251.517 51.5532L250.009 54.1468ZM319.236 63.042L318.182 64.1089L318.188 64.1149L319.236 63.042ZM310.808 1.39999V-0.100006H309.308V1.39999H310.808ZM330.212 1.39999H331.712V-0.100006H330.212V1.39999ZM356.182 1.39999V-0.100006H354.682V1.39999H356.182ZM375.292 1.39999H376.792V-0.100006H375.292V1.39999ZM366.766 63.042L365.718 61.9691L365.712 61.9752L366.766 63.042ZM343.05 69.872C333.134 69.872 325.615 67.1773 320.284 61.9691L318.188 64.1149C324.225 70.0134 332.582 72.872 343.05 72.872V69.872ZM320.29 61.9752C315.033 56.779 312.308 49.3369 312.308 39.424H309.308C309.308 49.8951 312.202 58.1983 318.182 64.1088L320.29 61.9752ZM312.308 39.424V1.39999H309.308V39.424H312.308ZM310.808 2.89999H330.212V-0.100006H310.808V2.89999ZM328.712 1.39999V38.836H331.712V1.39999H328.712ZM328.712 38.836C328.712 44.4815 329.823 48.9927 332.294 52.1151C334.819 55.3042 338.565 56.8 343.246 56.8V53.8C339.238 53.8 336.467 52.5518 334.647 50.2529C332.774 47.8873 331.712 44.1665 331.712 38.836H328.712ZM343.246 56.8C347.899 56.8 351.621 55.3014 354.128 52.1107C356.58 48.9889 357.682 44.4796 357.682 38.836H354.682C354.682 44.1684 353.628 47.8911 351.769 50.2573C349.964 52.5546 347.217 53.8 343.246 53.8V56.8ZM357.682 38.836V1.39999H354.682V38.836H357.682ZM356.182 2.89999H375.292V-0.100006H356.182V2.89999ZM373.792 1.39999V39.424H376.792V1.39999H373.792ZM373.792 39.424C373.792 49.3321 371.037 56.772 365.718 61.9691L367.814 64.1149C373.863 58.2053 376.792 49.8999 376.792 39.424H373.792ZM365.712 61.9752C360.449 67.177 352.967 69.872 343.05 69.872V72.872C353.517 72.872 361.846 70.0137 367.82 64.1088L365.712 61.9752ZM421.365 51.772L422.604 50.9262L422.157 50.272H421.365V51.772ZM410.781 51.772V50.272H409.281V51.772H410.781ZM410.781 70V71.5H412.281V70H410.781ZM391.377 70H389.877V71.5H391.377V70ZM391.377 1.39999V-0.100006H389.877V1.39999H391.377ZM438.907 4.536L438.283 5.90021L438.292 5.90391L438.3 5.90752L438.907 4.536ZM449.491 13.356L448.23 14.1682L448.236 14.178L449.491 13.356ZM449.687 39.816L448.419 39.015L448.415 39.021L449.687 39.816ZM439.789 48.44L439.135 47.0903L437.565 47.8511L438.552 49.2888L439.789 48.44ZM454.587 70V71.5H457.436L455.824 69.1512L454.587 70ZM433.811 70L432.572 70.8458L433.019 71.5H433.811V70ZM410.781 16.688V15.188H409.281V16.688H410.781ZM410.781 36.778H409.281V38.278H410.781V36.778ZM430.577 34.23L431.541 35.3793L431.552 35.3703L431.562 35.3611L430.577 34.23ZM421.365 50.272H410.781V53.272H421.365V50.272ZM409.281 51.772V70H412.281V51.772H409.281ZM410.781 68.5H391.377V71.5H410.781V68.5ZM392.877 70V1.39999H389.877V70H392.877ZM391.377 2.89999H422.737V-0.100006H391.377V2.89999ZM422.737 2.89999C428.778 2.89999 433.946 3.91742 438.283 5.90021L439.531 3.17178C434.721 0.973232 429.11 -0.100006 422.737 -0.100006V2.89999ZM438.3 5.90752C442.631 7.82548 445.92 10.5822 448.23 14.1682L450.752 12.5438C448.096 8.42051 444.33 5.29718 439.514 3.16447L438.3 5.90752ZM448.236 14.178C450.537 17.6903 451.715 21.8708 451.715 26.782H454.715C454.715 21.3705 453.41 16.6004 450.746 12.534L448.236 14.178ZM451.715 26.782C451.715 31.5009 450.601 35.5603 448.419 39.015L450.955 40.617C453.477 36.6237 454.715 31.9937 454.715 26.782H451.715ZM448.415 39.021C446.294 42.4144 443.222 45.1087 439.135 47.0903L440.443 49.7897C444.98 47.59 448.507 44.5349 450.959 40.611L448.415 39.021ZM438.552 49.2888L453.35 70.8488L455.824 69.1512L441.026 47.5912L438.552 49.2888ZM454.587 68.5H433.811V71.5H454.587V68.5ZM435.05 69.1542L422.604 50.9262L420.126 52.6178L432.572 70.8458L435.05 69.1542ZM435.115 26.782C435.115 23.2383 433.978 20.3067 431.562 18.2029L429.592 20.4651C431.227 21.8893 432.115 23.9231 432.115 26.782H435.115ZM431.562 18.2029C429.158 16.1089 425.738 15.188 421.561 15.188V18.188C425.355 18.188 427.945 19.0311 429.592 20.4651L431.562 18.2029ZM421.561 15.188H410.781V18.188H421.561V15.188ZM409.281 16.688V36.778H412.281V16.688H409.281ZM410.781 38.278H421.561V35.278H410.781V38.278ZM421.561 38.278C425.727 38.278 429.138 37.3948 431.541 35.3793L429.613 33.0807C427.966 34.4625 425.366 35.278 421.561 35.278V38.278ZM431.562 35.3611C433.978 33.2573 435.115 30.3257 435.115 26.782H432.115C432.115 29.6409 431.227 31.6747 429.592 33.0989L431.562 35.3611ZM62.4997 212L60.9998 212.008L61.0078 213.5H62.4997V212ZM62.3037 175.642L63.8037 175.634L63.7747 170.244L61.0153 174.874L62.3037 175.642ZM44.6637 205.238V206.738H45.5159L45.9522 206.006L44.6637 205.238ZM36.0397 205.238L34.7609 206.022L35.1999 206.738H36.0397V205.238ZM18.4977 176.622L19.7766 175.838L16.9977 171.305V176.622H18.4977ZM18.4977 212V213.5H19.9977V212H18.4977ZM0.563736 212H-0.936264V213.5H0.563736V212ZM0.563736 143.4V141.9H-0.936264V143.4H0.563736ZM16.5377 143.4L17.8189 142.62L17.3806 141.9H16.5377V143.4ZM40.6457 182.992L39.3646 183.772L40.6616 185.902L41.9353 183.758L40.6457 182.992ZM64.1657 143.4V141.9H63.3121L62.8761 142.634L64.1657 143.4ZM80.1397 143.4L81.6397 143.396L81.6355 141.9H80.1397V143.4ZM80.3357 212V213.5H81.84L81.8357 211.996L80.3357 212ZM63.9997 211.992L63.8037 175.634L60.8038 175.65L60.9998 212.008L63.9997 211.992ZM61.0153 174.874L43.3752 204.47L45.9522 206.006L63.5922 176.41L61.0153 174.874ZM44.6637 203.738H36.0397V206.738H44.6637V203.738ZM37.3186 204.454L19.7766 175.838L17.2189 177.406L34.7609 206.022L37.3186 204.454ZM16.9977 176.622V212H19.9977V176.622H16.9977ZM18.4977 210.5H0.563736V213.5H18.4977V210.5ZM2.06374 212V143.4H-0.936264V212H2.06374ZM0.563736 144.9H16.5377V141.9H0.563736V144.9ZM15.2566 144.18L39.3646 183.772L41.9269 182.212L17.8189 142.62L15.2566 144.18ZM41.9353 183.758L65.4553 144.166L62.8761 142.634L39.3561 182.226L41.9353 183.758ZM64.1657 144.9H80.1397V141.9H64.1657V144.9ZM78.6397 143.404L78.8358 212.004L81.8357 211.996L81.6397 143.396L78.6397 143.404ZM80.3357 210.5H62.4997V213.5H80.3357V210.5ZM97.0057 143.4V141.9H95.5057V143.4H97.0057ZM116.41 143.4H117.91V141.9H116.41V143.4ZM116.41 212V213.5H117.91V212H116.41ZM97.0057 212H95.5057V213.5H97.0057V212ZM97.0057 144.9H116.41V141.9H97.0057V144.9ZM114.91 143.4V212H117.91V143.4H114.91ZM116.41 210.5H97.0057V213.5H116.41V210.5ZM98.5057 212V143.4H95.5057V212H98.5057ZM141.093 211.314L141.474 209.863L141.093 211.314ZM128.353 205.826L126.982 205.216L126.479 206.346L127.492 207.055L128.353 205.826ZM134.723 191.518L135.549 190.266L134.072 189.292L133.352 190.908L134.723 191.518ZM145.405 196.418L145.844 194.984L145.405 196.418ZM165.299 188.382L164.662 189.74L164.687 189.752L164.713 189.763L165.299 188.382ZM155.107 185.344L155.432 183.88L155.422 183.878L155.107 185.344ZM142.171 181.816L141.641 183.219L141.653 183.224L141.664 183.228L142.171 181.816ZM132.959 153.004L134.195 153.853L134.203 153.842L132.959 153.004ZM143.151 144.968L142.56 143.589L142.553 143.592L143.151 144.968ZM173.237 143.596L172.888 145.055L172.899 145.057L172.909 145.06L173.237 143.596ZM184.801 148.006L186.186 148.581L186.687 147.375L185.561 146.713L184.801 148.006ZM178.823 162.412L178.11 163.732L179.572 164.521L180.208 162.987L178.823 162.412ZM151.383 158.884L152.182 160.153L152.198 160.143L152.215 160.132L151.383 158.884ZM151.873 167.41L151.271 168.784L151.873 167.41ZM161.967 170.252L162.278 168.785L162.277 168.784L161.967 170.252ZM174.903 173.878L174.364 175.278L174.38 175.284L174.396 175.29L174.903 173.878ZM183.821 179.954L182.697 180.947L182.709 180.961L182.721 180.975L183.821 179.954ZM184.213 202.396L182.976 201.547L184.213 202.396ZM173.923 210.432L174.514 211.811L174.522 211.807L174.53 211.804L173.923 210.432ZM157.263 211.872C151.834 211.872 146.572 211.202 141.474 209.863L140.712 212.765C146.066 214.17 151.584 214.872 157.263 214.872V211.872ZM141.474 209.863C136.362 208.521 132.293 206.753 129.213 204.597L127.492 207.055C130.946 209.472 135.37 211.363 140.712 212.765L141.474 209.863ZM129.723 206.436L136.093 192.128L133.352 190.908L126.982 205.216L129.723 206.436ZM133.897 192.77C137.103 194.885 140.798 196.575 144.965 197.852L145.844 194.984C141.91 193.778 138.483 192.201 135.549 190.266L133.897 192.77ZM144.965 197.852C149.147 199.134 153.28 199.78 157.361 199.78V196.78C153.601 196.78 149.764 196.185 145.844 194.984L144.965 197.852ZM157.361 199.78C161.161 199.78 164.235 199.313 166.411 198.225C167.519 197.671 168.441 196.932 169.083 195.97C169.73 194.999 170.033 193.887 170.033 192.694H167.033C167.033 193.363 166.87 193.881 166.586 194.306C166.297 194.74 165.822 195.165 165.069 195.542C163.52 196.316 161.008 196.78 157.361 196.78V199.78ZM170.033 192.694C170.033 191.421 169.676 190.248 168.924 189.246C168.185 188.261 167.134 187.531 165.885 187.001L164.713 189.763C165.619 190.147 166.185 190.594 166.524 191.046C166.851 191.481 167.033 192.007 167.033 192.694H170.033ZM165.935 187.024C163.687 185.97 160.154 184.929 155.432 183.88L154.781 186.808C159.468 187.85 162.729 188.834 164.662 189.74L165.935 187.024ZM155.422 183.878C150.3 182.775 146.057 181.616 142.677 180.404L141.664 183.228C145.21 184.499 149.59 185.691 154.791 186.81L155.422 183.878ZM142.7 180.413C139.469 179.193 136.7 177.277 134.377 174.649L132.129 176.635C134.771 179.625 137.947 181.825 141.641 183.219L142.7 180.413ZM134.377 174.649C132.197 172.182 131.029 168.78 131.029 164.274H128.029C128.029 169.307 129.343 173.484 132.129 176.635L134.377 174.649ZM131.029 164.274C131.029 160.385 132.086 156.926 134.195 153.853L131.722 152.155C129.258 155.746 128.029 159.801 128.029 164.274H131.029ZM134.203 153.842C136.3 150.725 139.45 148.213 143.749 146.344L142.553 143.592C137.835 145.643 134.19 148.488 131.714 152.166L134.203 153.842ZM143.742 146.347C148.078 144.488 153.45 143.528 159.909 143.528V140.528C153.17 140.528 147.37 141.528 142.56 143.589L143.742 146.347ZM159.909 143.528C164.3 143.528 168.625 144.037 172.888 145.055L173.585 142.137C169.093 141.064 164.534 140.528 159.909 140.528V143.528ZM172.909 145.06C177.158 146.011 180.862 147.43 184.04 149.299L185.561 146.713C182.075 144.662 178.07 143.141 173.564 142.132L172.909 145.06ZM183.415 147.431L177.437 161.837L180.208 162.987L186.186 148.581L183.415 147.431ZM179.535 161.092C172.829 157.47 166.248 155.62 159.811 155.62V158.62C165.656 158.62 171.75 160.298 178.11 163.732L179.535 161.092ZM159.811 155.62C155.869 155.62 152.691 156.209 150.551 157.636L152.215 160.132C153.602 159.207 156.043 158.62 159.811 158.62V155.62ZM150.583 157.615C148.455 158.955 147.237 160.87 147.237 163.294H150.237C150.237 162.06 150.782 161.035 152.182 160.153L150.583 157.615ZM147.237 163.294C147.237 164.516 147.593 165.64 148.328 166.604C149.047 167.548 150.065 168.257 151.271 168.784L152.474 166.036C151.589 165.649 151.04 165.214 150.714 164.786C150.403 164.378 150.237 163.901 150.237 163.294H147.237ZM151.271 168.784C153.51 169.764 157.001 170.736 161.657 171.72L162.277 168.784C157.655 167.808 154.416 166.886 152.474 166.036L151.271 168.784ZM161.655 171.719C166.837 172.82 171.066 174.009 174.364 175.278L175.441 172.478C171.945 171.133 167.55 169.905 162.278 168.785L161.655 171.719ZM174.396 175.29C177.617 176.444 180.378 178.324 182.697 180.947L184.945 178.961C182.298 175.966 179.114 173.794 175.409 172.466L174.396 175.29ZM182.721 180.975C184.947 183.371 186.143 186.726 186.143 191.224H189.143C189.143 186.184 187.79 182.025 184.92 178.933L182.721 180.975ZM186.143 191.224C186.143 195.043 185.088 198.47 182.976 201.547L185.449 203.245C187.911 199.658 189.143 195.637 189.143 191.224H186.143ZM182.976 201.547C180.88 204.601 177.695 207.121 173.315 209.06L174.53 211.804C179.297 209.692 182.972 206.855 185.449 203.245L182.976 201.547ZM173.332 209.053C168.994 210.912 163.653 211.872 157.263 211.872V214.872C163.939 214.872 169.705 213.872 174.514 211.811L173.332 209.053ZM207.484 211.314L207.865 209.863L207.484 211.314ZM194.744 205.826L193.374 205.216L192.871 206.346L193.884 207.055L194.744 205.826ZM201.114 191.518L201.94 190.266L200.463 189.292L199.744 190.908L201.114 191.518ZM211.796 196.418L212.235 194.984L211.796 196.418ZM231.69 188.382L231.053 189.74L231.078 189.752L231.104 189.763L231.69 188.382ZM221.498 185.344L221.823 183.88L221.813 183.878L221.498 185.344ZM208.562 181.816L208.032 183.219L208.044 183.224L208.056 183.228L208.562 181.816ZM199.35 153.004L200.587 153.853L200.594 153.842L199.35 153.004ZM209.542 144.968L208.951 143.589L208.944 143.592L209.542 144.968ZM239.628 143.596L239.279 145.055L239.29 145.057L239.3 145.06L239.628 143.596ZM251.192 148.006L252.577 148.581L253.078 147.375L251.952 146.713L251.192 148.006ZM245.214 162.412L244.501 163.732L245.963 164.521L246.599 162.987L245.214 162.412ZM217.774 158.884L218.573 160.153L218.59 160.143L218.606 160.132L217.774 158.884ZM218.264 167.41L217.663 168.784L218.264 167.41ZM228.358 170.252L228.67 168.785L228.668 168.784L228.358 170.252ZM241.294 173.878L240.755 175.278L240.771 175.284L240.788 175.29L241.294 173.878ZM250.212 179.954L249.088 180.947L249.1 180.961L249.113 180.975L250.212 179.954ZM250.604 202.396L249.367 201.547L250.604 202.396ZM240.314 210.432L240.905 211.811L240.913 211.807L240.921 211.804L240.314 210.432ZM223.654 211.872C218.225 211.872 212.964 211.202 207.865 209.863L207.103 212.765C212.457 214.17 217.976 214.872 223.654 214.872V211.872ZM207.865 209.863C202.753 208.521 198.684 206.753 195.604 204.597L193.884 207.055C197.337 209.472 201.762 211.363 207.103 212.765L207.865 209.863ZM196.114 206.436L202.484 192.128L199.744 190.908L193.374 205.216L196.114 206.436ZM200.288 192.77C203.495 194.885 207.189 196.575 211.356 197.852L212.235 194.984C208.301 193.778 204.874 192.201 201.94 190.266L200.288 192.77ZM211.356 197.852C215.538 199.134 219.671 199.78 223.752 199.78V196.78C219.992 196.78 216.155 196.185 212.235 194.984L211.356 197.852ZM223.752 199.78C227.552 199.78 230.626 199.313 232.802 198.225C233.911 197.671 234.832 196.932 235.474 195.97C236.121 194.999 236.424 193.887 236.424 192.694H233.424C233.424 193.363 233.261 193.881 232.978 194.306C232.688 194.74 232.213 195.165 231.46 195.542C229.911 196.316 227.399 196.78 223.752 196.78V199.78ZM236.424 192.694C236.424 191.421 236.067 190.248 235.315 189.246C234.576 188.261 233.525 187.531 232.276 187.001L231.104 189.763C232.011 190.147 232.576 190.594 232.915 191.046C233.242 191.481 233.424 192.007 233.424 192.694H236.424ZM232.327 187.024C230.078 185.97 226.545 184.929 221.823 183.88L221.172 186.808C225.859 187.85 229.12 188.834 231.053 189.74L232.327 187.024ZM221.813 183.878C216.691 182.775 212.448 181.616 209.068 180.404L208.056 183.228C211.601 184.499 215.982 185.691 221.182 186.81L221.813 183.878ZM209.091 180.413C205.86 179.193 203.091 177.277 200.768 174.649L198.52 176.635C201.162 179.625 204.338 181.825 208.032 183.219L209.091 180.413ZM200.768 174.649C198.588 172.182 197.42 168.78 197.42 164.274H194.42C194.42 169.307 195.735 173.484 198.52 176.635L200.768 174.649ZM197.42 164.274C197.42 160.385 198.478 156.926 200.587 153.853L198.113 152.155C195.649 155.746 194.42 159.801 194.42 164.274H197.42ZM200.594 153.842C202.692 150.725 205.841 148.213 210.14 146.344L208.944 143.592C204.227 145.643 200.581 148.488 198.105 152.166L200.594 153.842ZM210.133 146.347C214.469 144.488 219.841 143.528 226.3 143.528V140.528C219.561 140.528 213.761 141.528 208.951 143.589L210.133 146.347ZM226.3 143.528C230.691 143.528 235.016 144.037 239.279 145.055L239.976 142.137C235.485 141.064 230.925 140.528 226.3 140.528V143.528ZM239.3 145.06C243.549 146.011 247.253 147.43 250.431 149.299L251.952 146.713C248.466 144.662 244.461 143.141 239.956 142.132L239.3 145.06ZM249.806 147.431L243.828 161.837L246.599 162.987L252.577 148.581L249.806 147.431ZM245.927 161.092C239.22 157.47 232.639 155.62 226.202 155.62V158.62C232.047 158.62 238.141 160.298 244.501 163.732L245.927 161.092ZM226.202 155.62C222.261 155.62 219.082 156.209 216.942 157.636L218.606 160.132C219.993 159.207 222.434 158.62 226.202 158.62V155.62ZM216.975 157.615C214.846 158.955 213.628 160.87 213.628 163.294H216.628C216.628 162.06 217.173 161.035 218.573 160.153L216.975 157.615ZM213.628 163.294C213.628 164.516 213.984 165.64 214.719 166.604C215.438 167.548 216.457 168.257 217.663 168.784L218.865 166.036C217.98 165.649 217.431 165.214 217.105 164.786C216.794 164.378 216.628 163.901 216.628 163.294H213.628ZM217.663 168.784C219.901 169.764 223.392 170.736 228.048 171.72L228.668 168.784C224.046 167.808 220.808 166.886 218.865 166.036L217.663 168.784ZM228.046 171.719C233.228 172.82 237.457 174.009 240.755 175.278L241.832 172.478C238.336 171.133 233.941 169.905 228.67 168.785L228.046 171.719ZM240.788 175.29C244.008 176.444 246.769 178.324 249.088 180.947L251.336 178.961C248.689 175.966 245.505 173.794 241.8 172.466L240.788 175.29ZM249.113 180.975C251.338 183.371 252.534 186.726 252.534 191.224H255.534C255.534 186.184 254.182 182.025 251.311 178.933L249.113 180.975ZM252.534 191.224C252.534 195.043 251.479 198.47 249.367 201.547L251.841 203.245C254.302 199.658 255.534 195.637 255.534 191.224H252.534ZM249.367 201.547C247.271 204.601 244.086 207.121 239.706 209.06L240.921 211.804C245.689 209.692 249.363 206.855 251.841 203.245L249.367 201.547ZM239.723 209.053C235.385 210.912 230.045 211.872 223.654 211.872V214.872C230.33 214.872 236.096 213.872 240.905 211.811L239.723 209.053ZM265.937 143.4V141.9H264.437V143.4H265.937ZM285.341 143.4H286.841V141.9H285.341V143.4ZM285.341 212V213.5H286.841V212H285.341ZM265.937 212H264.437V213.5H265.937V212ZM265.937 144.9H285.341V141.9H265.937V144.9ZM283.841 143.4V212H286.841V143.4H283.841ZM285.341 210.5H265.937V213.5H285.341V210.5ZM267.437 212V143.4H264.437V212H267.437ZM317.08 208.766L316.373 210.089L316.38 210.092L317.08 208.766ZM303.458 196.026L302.173 196.8L302.18 196.811L303.458 196.026ZM303.458 159.374L302.18 158.589L302.173 158.6L303.458 159.374ZM317.08 146.634L316.38 145.308L316.373 145.311L317.08 146.634ZM356.182 146.634L355.475 147.957L355.482 147.96L356.182 146.634ZM369.804 159.374L368.519 160.148L368.526 160.159L369.804 159.374ZM369.804 196.026L368.526 195.241L368.519 195.252L369.804 196.026ZM356.182 208.766L355.482 207.44L355.475 207.443L356.182 208.766ZM346.088 194.85L346.842 196.147L346.088 194.85ZM352.752 187.99L354.063 188.718L354.07 188.706L352.752 187.99ZM352.752 167.508L351.434 168.224L351.441 168.236L352.752 167.508ZM346.088 160.55L346.842 159.253L346.088 160.55ZM327.272 160.55L326.518 159.253L327.272 160.55ZM320.608 167.508L321.919 168.236L321.926 168.224L320.608 167.508ZM320.608 187.99L319.29 188.706L319.297 188.718L320.608 187.99ZM327.272 194.85L328.026 193.553L327.272 194.85ZM336.68 211.872C329.647 211.872 323.358 210.385 317.78 207.44L316.38 210.092C322.432 213.288 329.209 214.872 336.68 214.872V211.872ZM317.787 207.443C312.266 204.494 307.925 200.431 304.736 195.241L302.18 196.811C305.655 202.466 310.395 206.896 316.373 210.089L317.787 207.443ZM304.743 195.252C301.627 190.08 300.058 184.243 300.058 177.7H297.058C297.058 184.747 298.755 191.127 302.173 196.8L304.743 195.252ZM300.058 177.7C300.058 171.157 301.627 165.32 304.743 160.148L302.173 158.6C298.755 164.273 297.058 170.653 297.058 177.7H300.058ZM304.736 160.159C307.925 154.969 312.266 150.906 317.787 147.957L316.373 145.311C310.395 148.504 305.655 152.934 302.18 158.589L304.736 160.159ZM317.78 147.96C323.358 145.015 329.647 143.528 336.68 143.528V140.528C329.209 140.528 322.432 142.112 316.38 145.308L317.78 147.96ZM336.68 143.528C343.714 143.528 349.967 145.015 355.475 147.957L356.889 145.311C350.898 142.111 344.15 140.528 336.68 140.528V143.528ZM355.482 147.96C361.065 150.909 365.399 154.969 368.519 160.148L371.089 158.6C367.676 152.934 362.929 148.501 356.882 145.308L355.482 147.96ZM368.526 160.159C371.703 165.33 373.302 171.163 373.302 177.7H376.302C376.302 170.648 374.569 164.264 371.082 158.589L368.526 160.159ZM373.302 177.7C373.302 184.237 371.703 190.07 368.526 195.241L371.082 196.811C374.569 191.136 376.302 184.752 376.302 177.7H373.302ZM368.519 195.252C365.399 200.431 361.065 204.491 355.482 207.44L356.882 210.092C362.929 206.899 367.676 202.466 371.089 196.8L368.519 195.252ZM355.475 207.443C349.967 210.385 343.714 211.872 336.68 211.872V214.872C344.15 214.872 350.898 213.289 356.889 210.089L355.475 207.443ZM336.68 198.8C340.39 198.8 343.789 197.922 346.842 196.147L345.334 193.553C342.769 195.045 339.896 195.8 336.68 195.8V198.8ZM346.842 196.147C349.893 194.373 352.304 191.886 354.063 188.718L351.441 187.262C349.934 189.974 347.901 192.061 345.334 193.553L346.842 196.147ZM354.07 188.706C355.837 185.454 356.702 181.773 356.702 177.7H353.702C353.702 181.337 352.933 184.515 351.434 187.274L354.07 188.706ZM356.702 177.7C356.702 173.628 355.837 169.973 354.063 166.78L351.441 168.236C352.933 170.923 353.702 174.063 353.702 177.7H356.702ZM354.07 166.792C352.313 163.558 349.902 161.032 346.842 159.253L345.334 161.847C347.893 163.335 349.925 165.447 351.434 168.224L354.07 166.792ZM346.842 159.253C343.789 157.478 340.39 156.6 336.68 156.6V159.6C339.896 159.6 342.769 160.355 345.334 161.847L346.842 159.253ZM336.68 156.6C332.97 156.6 329.571 157.478 326.518 159.253L328.026 161.847C330.591 160.355 333.464 159.6 336.68 159.6V156.6ZM326.518 159.253C323.458 161.032 321.047 163.558 319.29 166.792L321.926 168.224C323.435 165.447 325.467 163.335 328.026 161.847L326.518 159.253ZM319.297 166.78C317.523 169.973 316.658 173.628 316.658 177.7H319.658C319.658 174.063 320.427 170.923 321.919 168.236L319.297 166.78ZM316.658 177.7C316.658 181.773 317.523 185.454 319.29 188.706L321.926 187.274C320.427 184.515 319.658 181.337 319.658 177.7H316.658ZM319.297 188.718C321.057 191.886 323.467 194.373 326.518 196.147L328.026 193.553C325.459 192.061 323.426 189.974 321.919 187.262L319.297 188.718ZM326.518 196.147C329.571 197.922 332.97 198.8 336.68 198.8V195.8C333.464 195.8 330.591 195.045 328.026 193.553L326.518 196.147ZM453.173 143.4H454.673V141.9H453.173V143.4ZM453.173 212V213.5H454.673V212H453.173ZM437.199 212L436.044 212.957L436.494 213.5H437.199V212ZM406.917 175.446L408.072 174.489L405.417 171.284V175.446H406.917ZM406.917 212V213.5H408.417V212H406.917ZM387.905 212H386.405V213.5H387.905V212ZM387.905 143.4V141.9H386.405V143.4H387.905ZM403.879 143.4L405.034 142.443L404.584 141.9H403.879V143.4ZM434.161 179.954L433.006 180.911L435.661 184.116V179.954H434.161ZM434.161 143.4V141.9H432.661V143.4H434.161ZM451.673 143.4V212H454.673V143.4H451.673ZM453.173 210.5H437.199V213.5H453.173V210.5ZM438.354 211.043L408.072 174.489L405.762 176.403L436.044 212.957L438.354 211.043ZM405.417 175.446V212H408.417V175.446H405.417ZM406.917 210.5H387.905V213.5H406.917V210.5ZM389.405 212V143.4H386.405V212H389.405ZM387.905 144.9H403.879V141.9H387.905V144.9ZM402.724 144.357L433.006 180.911L435.316 178.997L405.034 142.443L402.724 144.357ZM435.661 179.954V143.4H432.661V179.954H435.661ZM434.161 144.9H453.173V141.9H434.161V144.9Z" fill="#43B5D9"/>
</svg>

