<svg width="1363" height="139" viewBox="0 0 1363 139" fill="none" xmlns="http://www.w3.org/2000/svg">
<path d="M219.33 2.99999L176.2 136H135.92L110.46 55.06L83.8595 136H43.5795L0.449546 2.99999H39.2095L65.9996 87.93L94.1195 2.99999H128.7L155.49 88.69L183.42 2.99999H219.33ZM365.049 2.99999V136H327.429V84.13H276.129V136H238.509V2.99999H276.129V52.97H327.429V2.99999H365.049ZM468.535 88.31V136H430.915V87.74L380.185 2.99999H419.895L451.435 55.82L482.975 2.99999H519.455L468.535 88.31ZM662.787 138.66C648.727 138.66 636.06 135.683 624.787 129.73C613.64 123.777 604.837 115.543 598.377 105.03C592.043 94.5167 588.877 82.6733 588.877 69.5C588.877 56.3267 592.043 44.4833 598.377 33.97C604.837 23.4567 613.64 15.2233 624.787 9.26999C636.06 3.31666 648.727 0.339991 662.787 0.339991C676.847 0.339991 689.45 3.31666 700.597 9.26999C711.87 15.2233 720.673 23.4567 727.007 33.97C733.467 44.4833 736.697 56.3267 736.697 69.5C736.697 82.6733 733.467 94.5167 727.007 105.03C720.673 115.543 711.87 123.777 700.597 129.73C689.45 135.683 676.847 138.66 662.787 138.66ZM662.787 107.5C669.5 107.5 675.58 105.917 681.027 102.75C686.473 99.5833 690.78 95.15 693.947 89.45C697.113 83.6233 698.697 76.9733 698.697 69.5C698.697 62.0267 697.113 55.44 693.947 49.74C690.78 43.9133 686.473 39.4167 681.027 36.25C675.58 33.0833 669.5 31.5 662.787 31.5C656.073 31.5 649.993 33.0833 644.547 36.25C639.1 39.4167 634.793 43.9133 631.627 49.74C628.46 55.44 626.877 62.0267 626.877 69.5C626.877 76.9733 628.46 83.6233 631.627 89.45C634.793 95.15 639.1 99.5833 644.547 102.75C649.993 105.917 656.073 107.5 662.787 107.5ZM882.18 136L881.8 65.51L847.6 122.89H830.88L796.87 67.41V136H762.1V2.99999H793.07L839.81 79.76L885.41 2.99999H916.38L916.76 136H882.18ZM1016.15 138.66C1002.09 138.66 989.423 135.683 978.149 129.73C967.003 123.777 958.199 115.543 951.739 105.03C945.406 94.5167 942.239 82.6733 942.239 69.5C942.239 56.3267 945.406 44.4833 951.739 33.97C958.199 23.4567 967.003 15.2233 978.149 9.26999C989.423 3.31666 1002.09 0.339991 1016.15 0.339991C1030.21 0.339991 1042.81 3.31666 1053.96 9.26999C1065.23 15.2233 1074.04 23.4567 1080.37 33.97C1086.83 44.4833 1090.06 56.3267 1090.06 69.5C1090.06 82.6733 1086.83 94.5167 1080.37 105.03C1074.04 115.543 1065.23 123.777 1053.96 129.73C1042.81 135.683 1030.21 138.66 1016.15 138.66ZM1016.15 107.5C1022.86 107.5 1028.94 105.917 1034.39 102.75C1039.84 99.5833 1044.14 95.15 1047.31 89.45C1050.48 83.6233 1052.06 76.9733 1052.06 69.5C1052.06 62.0267 1050.48 55.44 1047.31 49.74C1044.14 43.9133 1039.84 39.4167 1034.39 36.25C1028.94 33.0833 1022.86 31.5 1016.15 31.5C1009.44 31.5 1003.36 33.0833 997.909 36.25C992.463 39.4167 988.156 43.9133 984.989 49.74C981.823 55.44 980.239 62.0267 980.239 69.5C980.239 76.9733 981.823 83.6233 984.989 89.45C988.156 95.15 992.463 99.5833 997.909 102.75C1003.36 105.917 1009.44 107.5 1016.15 107.5ZM1176.83 138.66C1157.07 138.66 1141.68 133.277 1130.66 122.51C1119.77 111.743 1114.32 96.48 1114.32 76.72V2.99999H1151.94V75.58C1151.94 96.86 1160.37 107.5 1177.21 107.5C1193.93 107.5 1202.29 96.86 1202.29 75.58V2.99999H1239.34V76.72C1239.34 96.48 1233.83 111.743 1222.81 122.51C1211.92 133.277 1196.59 138.66 1176.83 138.66ZM1297.51 87.55C1297.51 81.2167 1298.9 76.0233 1301.69 71.97C1304.47 67.79 1308.53 63.23 1313.85 58.29C1317.52 54.87 1320.24 52.02 1322.02 49.74C1323.79 47.3333 1324.68 44.8 1324.68 42.14C1324.68 38.4667 1323.09 35.5533 1319.93 33.4C1316.89 31.12 1312.9 29.98 1307.96 29.98C1302.89 29.98 1298.27 31.1833 1294.09 33.59C1290.03 35.9967 1286.74 39.3533 1284.21 43.66L1255.9 28.46C1261.09 19.5933 1268.44 12.69 1277.94 7.75C1287.44 2.80999 1298.9 0.339991 1312.33 0.339991C1327.4 0.339991 1339.5 3.50666 1348.62 9.83999C1357.86 16.0467 1362.49 24.7867 1362.49 36.06C1362.49 41.2533 1361.6 45.8767 1359.83 49.93C1358.05 53.8567 1355.9 57.2133 1353.37 60C1350.96 62.66 1347.79 65.7 1343.87 69.12C1339.56 72.7933 1336.39 75.96 1334.37 78.62C1332.34 81.1533 1331.33 84.13 1331.33 87.55H1297.51ZM1314.42 137.71C1308.21 137.71 1303.08 135.81 1299.03 132.01C1294.97 128.083 1292.95 123.333 1292.95 117.76C1292.95 112.06 1294.91 107.373 1298.84 103.7C1302.89 100.027 1308.08 98.19 1314.42 98.19C1320.75 98.19 1325.94 100.027 1330 103.7C1334.05 107.373 1336.08 112.06 1336.08 117.76C1336.08 123.333 1334.05 128.083 1330 132.01C1325.94 135.81 1320.75 137.71 1314.42 137.71Z" fill="white"/>
<path d="M219.33 2.99999L223.134 4.23388L224.832 -1.00001H219.33V2.99999ZM176.2 136V140H179.107L180.004 137.234L176.2 136ZM135.92 136L132.104 137.2L132.985 140H135.92V136ZM110.46 55.06L114.275 53.8598L110.543 41.9944L106.659 53.8112L110.46 55.06ZM83.8595 136V140H86.7555L87.6596 137.249L83.8595 136ZM43.5795 136L39.7746 137.234L40.6716 140H43.5795V136ZM0.449546 2.99999V-1.00001H-5.05266L-3.35539 4.23388L0.449546 2.99999ZM39.2095 2.99999L43.0243 1.79669L42.1421 -1.00001H39.2095V2.99999ZM65.9996 87.93L62.1848 89.1333L65.9074 100.934L69.7968 89.1873L65.9996 87.93ZM94.1195 2.99999V-1.00001H91.2304L90.3223 1.74273L94.1195 2.99999ZM128.7 2.99999L132.517 1.80641L131.64 -1.00001H128.7V2.99999ZM155.49 88.69L151.672 89.8836L155.41 101.841L159.293 89.9296L155.49 88.69ZM183.42 2.99999V-1.00001H180.516L179.616 1.76041L183.42 2.99999ZM215.525 1.7661L172.395 134.766L180.004 137.234L223.134 4.23388L215.525 1.7661ZM176.2 132H135.92V140H176.2V132ZM139.735 134.8L114.275 53.8598L106.644 56.2602L132.104 137.2L139.735 134.8ZM106.659 53.8112L80.0595 134.751L87.6596 137.249L114.26 56.3088L106.659 53.8112ZM83.8595 132H43.5795V140H83.8595V132ZM47.3845 134.766L4.25448 1.76611L-3.35539 4.23388L39.7746 137.234L47.3845 134.766ZM0.449546 6.99999H39.2095V-1.00001H0.449546V6.99999ZM35.3948 4.20329L62.1848 89.1333L69.8143 86.7267L43.0243 1.79669L35.3948 4.20329ZM69.7968 89.1873L97.9168 4.25725L90.3223 1.74273L62.2023 86.6727L69.7968 89.1873ZM94.1195 6.99999H128.7V-1.00001H94.1195V6.99999ZM124.882 4.19357L151.672 89.8836L159.307 87.4964L132.517 1.80641L124.882 4.19357ZM159.293 89.9296L187.223 4.23958L179.616 1.76041L151.686 87.4504L159.293 89.9296ZM183.42 6.99999H219.33V-1.00001H183.42V6.99999ZM365.049 2.99999H369.049V-1.00001H365.049V2.99999ZM365.049 136V140H369.049V136H365.049ZM327.429 136H323.429V140H327.429V136ZM327.429 84.13H331.429V80.13H327.429V84.13ZM276.129 84.13V80.13H272.129V84.13H276.129ZM276.129 136V140H280.129V136H276.129ZM238.509 136H234.509V140H238.509V136ZM238.509 2.99999V-1.00001H234.509V2.99999H238.509ZM276.129 2.99999H280.129V-1.00001H276.129V2.99999ZM276.129 52.97H272.129V56.97H276.129V52.97ZM327.429 52.97V56.97H331.429V52.97H327.429ZM327.429 2.99999V-1.00001H323.429V2.99999H327.429ZM361.049 2.99999V136H369.049V2.99999H361.049ZM365.049 132H327.429V140H365.049V132ZM331.429 136V84.13H323.429V136H331.429ZM327.429 80.13H276.129V88.13H327.429V80.13ZM272.129 84.13V136H280.129V84.13H272.129ZM276.129 132H238.509V140H276.129V132ZM242.509 136V2.99999H234.509V136H242.509ZM238.509 6.99999H276.129V-1.00001H238.509V6.99999ZM272.129 2.99999V52.97H280.129V2.99999H272.129ZM276.129 56.97H327.429V48.97H276.129V56.97ZM331.429 52.97V2.99999H323.429V52.97H331.429ZM327.429 6.99999H365.049V-1.00001H327.429V6.99999ZM468.535 88.31L465.101 86.2599L464.535 87.207V88.31H468.535ZM468.535 136V140H472.535V136H468.535ZM430.915 136H426.915V140H430.915V136ZM430.915 87.74H434.915V86.6342L434.347 85.6854L430.915 87.74ZM380.185 2.99999V-1.00001H373.129L376.753 5.05458L380.185 2.99999ZM419.895 2.99999L423.33 0.949279L422.166 -1.00001H419.895V2.99999ZM451.435 55.82L448.001 57.8707L451.435 63.6222L454.87 57.8707L451.435 55.82ZM482.975 2.99999V-1.00001H480.705L479.541 0.949279L482.975 2.99999ZM519.455 2.99999L522.89 5.05009L526.501 -1.00001H519.455V2.99999ZM464.535 88.31V136H472.535V88.31H464.535ZM468.535 132H430.915V140H468.535V132ZM434.915 136V87.74H426.915V136H434.915ZM434.347 85.6854L383.617 0.945404L376.753 5.05458L427.483 89.7946L434.347 85.6854ZM380.185 6.99999H419.895V-1.00001H380.185V6.99999ZM416.461 5.0507L448.001 57.8707L454.87 53.7693L423.33 0.949279L416.461 5.0507ZM454.87 57.8707L486.41 5.0507L479.541 0.949279L448.001 53.7693L454.87 57.8707ZM482.975 6.99999H519.455V-1.00001H482.975V6.99999ZM516.021 0.949888L465.101 86.2599L471.97 90.3601L522.89 5.05009L516.021 0.949888ZM624.787 129.73L622.902 133.258L622.91 133.263L622.919 133.267L624.787 129.73ZM598.377 105.03L594.95 107.094L594.959 107.109L594.969 107.124L598.377 105.03ZM598.377 33.97L594.969 31.8759L594.959 31.8909L594.95 31.9059L598.377 33.97ZM624.787 9.26999L622.919 5.73291L622.91 5.73728L622.902 5.74169L624.787 9.26999ZM700.597 9.26999L698.712 12.7983L698.72 12.8027L698.729 12.8071L700.597 9.26999ZM727.007 33.97L723.58 36.0341L723.589 36.0491L723.599 36.0641L727.007 33.97ZM727.007 105.03L723.599 102.936L723.589 102.951L723.58 102.966L727.007 105.03ZM700.597 129.73L698.729 126.193L698.72 126.197L698.712 126.202L700.597 129.73ZM681.027 102.75L683.037 106.208L683.037 106.208L681.027 102.75ZM693.947 89.45L697.443 91.3926L697.452 91.3764L697.461 91.3601L693.947 89.45ZM693.947 49.74L690.432 51.65L690.441 51.6663L690.45 51.6826L693.947 49.74ZM681.027 36.25L683.037 32.792L683.037 32.792L681.027 36.25ZM644.547 36.25L642.536 32.792L642.536 32.792L644.547 36.25ZM631.627 49.74L635.123 51.6826L635.132 51.6663L635.141 51.65L631.627 49.74ZM631.627 89.45L628.112 91.3601L628.121 91.3764L628.13 91.3926L631.627 89.45ZM644.547 102.75L646.557 99.292L646.557 99.292L644.547 102.75ZM662.787 134.66C649.309 134.66 637.295 131.812 626.654 126.193L622.919 133.267C634.825 139.555 648.144 142.66 662.787 142.66V134.66ZM626.671 126.202C616.135 120.574 607.864 112.829 601.785 102.936L594.969 107.124C601.809 118.257 611.145 126.979 622.902 133.258L626.671 126.202ZM601.803 102.966C595.872 93.1214 592.877 82.0013 592.877 69.5H584.877C584.877 83.3454 588.214 95.9119 594.95 107.094L601.803 102.966ZM592.877 69.5C592.877 56.9987 595.872 45.8786 601.803 36.0341L594.95 31.9059C588.214 43.0881 584.877 55.6546 584.877 69.5H592.877ZM601.785 36.0641C607.864 26.1707 616.135 18.4257 626.671 12.7983L622.902 5.74169C611.145 12.021 601.809 20.7427 594.969 31.8759L601.785 36.0641ZM626.654 12.8071C637.295 7.18809 649.309 4.33999 662.787 4.33999V-3.66001C648.144 -3.66001 634.825 -0.554779 622.919 5.73291L626.654 12.8071ZM662.787 4.33999C676.265 4.33999 688.208 7.18828 698.712 12.7983L702.481 5.74169C690.692 -0.554969 677.429 -3.66001 662.787 -3.66001V4.33999ZM698.729 12.8071C709.384 18.4342 717.638 26.1692 723.58 36.0341L730.433 31.9059C723.709 20.7441 714.356 12.0125 702.464 5.73291L698.729 12.8071ZM723.599 36.0641C729.645 45.9046 732.697 57.0139 732.697 69.5H740.697C740.697 55.6394 737.288 43.0621 730.415 31.8759L723.599 36.0641ZM732.697 69.5C732.697 81.986 729.645 93.0954 723.599 102.936L730.415 107.124C737.288 95.9379 740.697 83.3606 740.697 69.5H732.697ZM723.58 102.966C717.638 112.831 709.384 120.566 698.729 126.193L702.464 133.267C714.356 126.988 723.709 118.256 730.433 107.094L723.58 102.966ZM698.712 126.202C688.208 131.812 676.265 134.66 662.787 134.66V142.66C677.429 142.66 690.692 139.555 702.481 133.258L698.712 126.202ZM662.787 111.5C670.158 111.5 676.94 109.753 683.037 106.208L679.016 99.292C674.22 102.08 668.842 103.5 662.787 103.5V111.5ZM683.037 106.208C689.129 102.666 693.939 97.6993 697.443 91.3926L690.45 87.5074C687.62 92.6007 683.818 96.5004 679.016 99.292L683.037 106.208ZM697.461 91.3601C700.985 84.876 702.697 77.5546 702.697 69.5H694.697C694.697 76.3921 693.241 82.3707 690.432 87.5399L697.461 91.3601ZM702.697 69.5C702.697 61.4474 700.986 54.1737 697.443 47.7974L690.45 51.6826C693.241 56.7063 694.697 62.6059 694.697 69.5H702.697ZM697.461 47.8299C693.964 41.3946 689.151 36.3468 683.037 32.792L679.016 39.708C683.795 42.4865 687.596 46.4321 690.432 51.65L697.461 47.8299ZM683.037 32.792C676.94 29.2469 670.158 27.5 662.787 27.5V35.5C668.842 35.5 674.22 36.9197 679.016 39.708L683.037 32.792ZM662.787 27.5C655.415 27.5 648.634 29.2469 642.536 32.792L646.557 39.708C651.353 36.9197 656.731 35.5 662.787 35.5V27.5ZM642.536 32.792C636.422 36.3468 631.61 41.3946 628.112 47.8299L635.141 51.65C637.977 46.4321 641.778 42.4865 646.557 39.708L642.536 32.792ZM628.13 47.7974C624.588 54.1737 622.877 61.4474 622.877 69.5H630.877C630.877 62.6059 632.332 56.7063 635.123 51.6826L628.13 47.7974ZM622.877 69.5C622.877 77.5546 624.588 84.876 628.112 91.3601L635.141 87.5399C632.332 82.3707 630.877 76.3921 630.877 69.5H622.877ZM628.13 91.3926C631.634 97.6993 636.444 102.666 642.536 106.208L646.557 99.292C641.756 96.5004 637.953 92.6007 635.123 87.5074L628.13 91.3926ZM642.536 106.208C648.634 109.753 655.415 111.5 662.787 111.5V103.5C656.731 103.5 651.353 102.08 646.557 99.292L642.536 106.208ZM882.18 136L878.18 136.022L878.202 140H882.18V136ZM881.8 65.51L885.8 65.4884L885.723 51.1162L878.364 63.4621L881.8 65.51ZM847.6 122.89V126.89H849.873L851.036 124.938L847.6 122.89ZM830.88 122.89L827.47 124.981L828.64 126.89H830.88V122.89ZM796.87 67.41L800.28 65.3195L792.87 53.2313V67.41H796.87ZM796.87 136V140H800.87V136H796.87ZM762.1 136H758.1V140H762.1V136ZM762.1 2.99999V-1.00001H758.1V2.99999H762.1ZM793.07 2.99999L796.487 0.919667L795.318 -1.00001H793.07V2.99999ZM839.81 79.76L836.394 81.8403L839.852 87.5206L843.249 81.8029L839.81 79.76ZM885.41 2.99999V-1.00001H883.134L881.971 0.957049L885.41 2.99999ZM916.38 2.99999L920.38 2.98856L920.369 -1.00001H916.38V2.99999ZM916.76 136V140H920.772L920.76 135.989L916.76 136ZM886.18 135.978L885.8 65.4884L877.8 65.5316L878.18 136.022L886.18 135.978ZM878.364 63.4621L844.164 120.842L851.036 124.938L885.236 67.5579L878.364 63.4621ZM847.6 118.89H830.88V126.89H847.6V118.89ZM834.29 120.799L800.28 65.3195L793.46 69.5005L827.47 124.981L834.29 120.799ZM792.87 67.41V136H800.87V67.41H792.87ZM796.87 132H762.1V140H796.87V132ZM766.1 136V2.99999H758.1V136H766.1ZM762.1 6.99999H793.07V-1.00001H762.1V6.99999ZM789.654 5.08032L836.394 81.8403L843.227 77.6797L796.487 0.919667L789.654 5.08032ZM843.249 81.8029L888.849 5.04293L881.971 0.957049L836.371 77.7171L843.249 81.8029ZM885.41 6.99999H916.38V-1.00001H885.41V6.99999ZM912.38 3.01142L912.76 136.011L920.76 135.989L920.38 2.98856L912.38 3.01142ZM916.76 132H882.18V140H916.76V132ZM978.149 129.73L976.265 133.258L976.273 133.263L976.282 133.267L978.149 129.73ZM951.739 105.03L948.313 107.094L948.322 107.109L948.331 107.124L951.739 105.03ZM951.739 33.97L948.331 31.8759L948.322 31.8909L948.313 31.9059L951.739 33.97ZM978.149 9.26999L976.282 5.73291L976.273 5.73728L976.265 5.74169L978.149 9.26999ZM1053.96 9.26999L1052.08 12.7983L1052.08 12.8027L1052.09 12.8071L1053.96 9.26999ZM1080.37 33.97L1076.94 36.0341L1076.95 36.0491L1076.96 36.0641L1080.37 33.97ZM1080.37 105.03L1076.96 102.936L1076.95 102.951L1076.94 102.966L1080.37 105.03ZM1053.96 129.73L1052.09 126.193L1052.08 126.197L1052.08 126.202L1053.96 129.73ZM1034.39 102.75L1036.4 106.208L1036.4 106.208L1034.39 102.75ZM1047.31 89.45L1050.81 91.3926L1050.82 91.3764L1050.82 91.3601L1047.31 89.45ZM1047.31 49.74L1043.79 51.65L1043.8 51.6663L1043.81 51.6826L1047.31 49.74ZM1034.39 36.25L1036.4 32.792L1036.4 32.792L1034.39 36.25ZM997.909 36.25L995.899 32.792L995.899 32.792L997.909 36.25ZM984.989 49.74L988.486 51.6826L988.495 51.6663L988.504 51.65L984.989 49.74ZM984.989 89.45L981.475 91.3601L981.484 91.3764L981.493 91.3926L984.989 89.45ZM997.909 102.75L999.92 99.292L999.92 99.292L997.909 102.75ZM1016.15 134.66C1002.67 134.66 990.658 131.812 980.017 126.193L976.282 133.267C988.188 139.555 1001.51 142.66 1016.15 142.66V134.66ZM980.034 126.202C969.498 120.574 961.227 112.829 955.148 102.936L948.331 107.124C955.172 118.257 964.508 126.979 976.265 133.258L980.034 126.202ZM955.166 102.966C949.235 93.1214 946.239 82.0013 946.239 69.5H938.239C938.239 83.3454 941.577 95.9119 948.313 107.094L955.166 102.966ZM946.239 69.5C946.239 56.9987 949.235 45.8786 955.166 36.0341L948.313 31.9059C941.577 43.0881 938.239 55.6546 938.239 69.5H946.239ZM955.148 36.0641C961.227 26.1707 969.498 18.4257 980.034 12.7983L976.265 5.74169C964.508 12.021 955.172 20.7427 948.331 31.8759L955.148 36.0641ZM980.017 12.8071C990.658 7.18809 1002.67 4.33999 1016.15 4.33999V-3.66001C1001.51 -3.66001 988.188 -0.554779 976.282 5.73291L980.017 12.8071ZM1016.15 4.33999C1029.63 4.33999 1041.57 7.18828 1052.08 12.7983L1055.84 5.74169C1044.05 -0.554969 1030.79 -3.66001 1016.15 -3.66001V4.33999ZM1052.09 12.8071C1062.75 18.4342 1071 26.1692 1076.94 36.0341L1083.8 31.9059C1077.07 20.7441 1067.72 12.0125 1055.83 5.73291L1052.09 12.8071ZM1076.96 36.0641C1083.01 45.9046 1086.06 57.0139 1086.06 69.5H1094.06C1094.06 55.6394 1090.65 43.0621 1083.78 31.8759L1076.96 36.0641ZM1086.06 69.5C1086.06 81.986 1083.01 93.0954 1076.96 102.936L1083.78 107.124C1090.65 95.9379 1094.06 83.3606 1094.06 69.5H1086.06ZM1076.94 102.966C1071 112.831 1062.75 120.566 1052.09 126.193L1055.83 133.267C1067.72 126.988 1077.07 118.256 1083.8 107.094L1076.94 102.966ZM1052.08 126.202C1041.57 131.812 1029.63 134.66 1016.15 134.66V142.66C1030.79 142.66 1044.05 139.555 1055.84 133.258L1052.08 126.202ZM1016.15 111.5C1023.52 111.5 1030.3 109.753 1036.4 106.208L1032.38 99.292C1027.58 102.08 1022.2 103.5 1016.15 103.5V111.5ZM1036.4 106.208C1042.49 102.666 1047.3 97.6993 1050.81 91.3926L1043.81 87.5074C1040.98 92.6007 1037.18 96.5004 1032.38 99.292L1036.4 106.208ZM1050.82 91.3601C1054.35 84.876 1056.06 77.5546 1056.06 69.5H1048.06C1048.06 76.3921 1046.6 82.3707 1043.79 87.5399L1050.82 91.3601ZM1056.06 69.5C1056.06 61.4474 1054.35 54.1737 1050.81 47.7974L1043.81 51.6826C1046.6 56.7063 1048.06 62.6059 1048.06 69.5H1056.06ZM1050.82 47.8299C1047.33 41.3946 1042.51 36.3468 1036.4 32.792L1032.38 39.708C1037.16 42.4865 1040.96 46.4321 1043.79 51.65L1050.82 47.8299ZM1036.4 32.792C1030.3 29.2469 1023.52 27.5 1016.15 27.5V35.5C1022.2 35.5 1027.58 36.9197 1032.38 39.708L1036.4 32.792ZM1016.15 27.5C1008.78 27.5 1002 29.2469 995.899 32.792L999.92 39.708C1004.72 36.9197 1010.09 35.5 1016.15 35.5V27.5ZM995.899 32.792C989.785 36.3468 984.972 41.3946 981.475 47.8299L988.504 51.65C991.34 46.4321 995.141 42.4865 999.92 39.708L995.899 32.792ZM981.493 47.7974C977.95 54.1737 976.239 61.4474 976.239 69.5H984.239C984.239 62.6059 985.695 56.7063 988.486 51.6826L981.493 47.7974ZM976.239 69.5C976.239 77.5546 977.951 84.876 981.475 91.3601L988.504 87.5399C985.695 82.3707 984.239 76.3921 984.239 69.5H976.239ZM981.493 91.3926C984.997 97.6993 989.807 102.666 995.899 106.208L999.92 99.292C995.119 96.5004 991.316 92.6007 988.486 87.5074L981.493 91.3926ZM995.899 106.208C1002 109.753 1008.78 111.5 1016.15 111.5V103.5C1010.09 103.5 1004.72 102.08 999.92 99.292L995.899 106.208ZM1130.66 122.51L1127.85 125.355L1127.86 125.363L1127.87 125.371L1130.66 122.51ZM1114.32 2.99999V-1.00001H1110.32V2.99999H1114.32ZM1151.94 2.99999H1155.94V-1.00001H1151.94V2.99999ZM1202.29 2.99999V-1.00001H1198.29V2.99999H1202.29ZM1239.34 2.99999H1243.34V-1.00001H1239.34V2.99999ZM1222.81 122.51L1220.02 119.649L1220.01 119.657L1220 119.665L1222.81 122.51ZM1176.83 134.66C1157.81 134.66 1143.54 129.495 1133.46 119.649L1127.87 125.371C1139.83 137.058 1156.34 142.66 1176.83 142.66V134.66ZM1133.47 119.665C1123.55 109.851 1118.32 95.7357 1118.32 76.72H1110.32C1110.32 97.2243 1115.99 113.636 1127.85 125.355L1133.47 119.665ZM1118.32 76.72V2.99999H1110.32V76.72H1118.32ZM1114.32 6.99999H1151.94V-1.00001H1114.32V6.99999ZM1147.94 2.99999V75.58H1155.94V2.99999H1147.94ZM1147.94 75.58C1147.94 86.6401 1150.11 95.6739 1155.12 102.003C1160.28 108.51 1167.89 111.5 1177.21 111.5V103.5C1169.69 103.5 1164.67 101.17 1161.4 97.0372C1157.98 92.7261 1155.94 85.7999 1155.94 75.58H1147.94ZM1177.21 111.5C1186.48 111.5 1194.05 108.502 1199.17 101.991C1204.14 95.6638 1206.29 86.6349 1206.29 75.58H1198.29C1198.29 85.805 1196.27 92.7362 1192.88 97.0487C1189.63 101.178 1184.67 103.5 1177.21 103.5V111.5ZM1206.29 75.58V2.99999H1198.29V75.58H1206.29ZM1202.29 6.99999H1239.34V-1.00001H1202.29V6.99999ZM1235.34 2.99999V76.72H1243.34V2.99999H1235.34ZM1235.34 76.72C1235.34 95.7229 1230.07 109.832 1220.02 119.649L1225.61 125.371C1237.6 113.654 1243.34 97.2371 1243.34 76.72H1235.34ZM1220 119.665C1210.06 129.494 1195.86 134.66 1176.83 134.66V142.66C1197.33 142.66 1213.78 137.059 1225.62 125.355L1220 119.665ZM1297.51 87.55H1293.51V91.55H1297.51V87.55ZM1301.69 71.97L1304.98 74.2361L1305 74.2126L1305.02 74.1888L1301.69 71.97ZM1313.85 58.29L1316.57 61.2212L1316.57 61.2176L1313.85 58.29ZM1322.02 49.74L1325.18 52.1958L1325.21 52.1547L1325.24 52.1128L1322.02 49.74ZM1319.93 33.4L1317.53 36.6L1317.6 36.6556L1317.68 36.7077L1319.93 33.4ZM1294.09 33.59L1292.09 30.1235L1292.07 30.1369L1292.05 30.1506L1294.09 33.59ZM1284.21 43.66L1282.32 47.1842L1285.71 49.004L1287.66 45.6881L1284.21 43.66ZM1255.9 28.46L1252.45 26.4384L1250.35 30.0204L1254.01 31.9842L1255.9 28.46ZM1277.94 7.75L1279.78 11.2989L1279.78 11.2989L1277.94 7.75ZM1348.62 9.83999L1346.34 13.1255L1346.36 13.1435L1346.39 13.1612L1348.62 9.83999ZM1359.83 49.93L1363.47 51.5763L1363.48 51.5549L1363.49 51.5333L1359.83 49.93ZM1353.37 60L1350.41 57.3093L1350.4 57.3163L1353.37 60ZM1343.87 69.12L1346.46 72.1633L1346.48 72.1499L1346.5 72.1363L1343.87 69.12ZM1334.37 78.62L1337.49 81.1188L1337.52 81.0818L1337.55 81.0442L1334.37 78.62ZM1331.33 87.55V91.55H1335.33V87.55H1331.33ZM1299.03 132.01L1296.25 134.883L1296.27 134.906L1296.29 134.928L1299.03 132.01ZM1298.84 103.7L1296.15 100.736L1296.13 100.757L1296.11 100.779L1298.84 103.7ZM1330 103.7L1327.31 106.664L1327.31 106.664L1330 103.7ZM1330 132.01L1332.73 134.928L1332.76 134.906L1332.78 134.883L1330 132.01ZM1301.51 87.55C1301.51 81.7943 1302.77 77.4544 1304.98 74.2361L1298.39 69.7039C1295.03 74.5923 1293.51 80.6391 1293.51 87.55H1301.51ZM1305.02 74.1888C1307.57 70.3562 1311.39 66.0337 1316.57 61.2212L1311.13 55.3588C1305.67 60.4263 1301.38 65.2238 1298.36 69.7512L1305.02 74.1888ZM1316.57 61.2176C1320.31 57.7414 1323.21 54.7232 1325.18 52.1958L1318.86 47.2842C1317.28 49.3167 1314.74 51.9985 1311.12 55.3624L1316.57 61.2176ZM1325.24 52.1128C1327.45 49.1078 1328.68 45.7583 1328.68 42.14H1320.68C1320.68 43.8417 1320.13 45.5588 1318.8 47.3672L1325.24 52.1128ZM1328.68 42.14C1328.68 37.0765 1326.38 32.9526 1322.18 30.0923L1317.68 36.7077C1319.81 38.1541 1320.68 39.8568 1320.68 42.14H1328.68ZM1322.33 30.2C1318.41 27.2637 1313.5 25.98 1307.96 25.98V33.98C1312.29 33.98 1315.36 34.9763 1317.53 36.6L1322.33 30.2ZM1307.96 25.98C1302.23 25.98 1296.91 27.3494 1292.09 30.1235L1296.08 37.0565C1299.63 35.0172 1303.56 33.98 1307.96 33.98V25.98ZM1292.05 30.1506C1287.38 32.9224 1283.61 36.7798 1280.76 41.6319L1287.66 45.6881C1289.87 41.9268 1292.69 39.071 1296.13 37.0294L1292.05 30.1506ZM1286.1 40.1358L1257.79 24.9358L1254.01 31.9842L1282.32 47.1842L1286.1 40.1358ZM1259.35 30.4816C1264.15 22.2933 1270.92 15.9066 1279.78 11.2989L1276.09 4.20113C1265.95 9.47341 1258.04 16.8934 1252.45 26.4384L1259.35 30.4816ZM1279.78 11.2989C1288.59 6.72106 1299.38 4.33999 1312.33 4.33999V-3.66001C1298.42 -3.66001 1286.29 -1.10107 1276.09 4.20113L1279.78 11.2989ZM1312.33 4.33999C1326.87 4.33999 1338.09 7.39712 1346.34 13.1255L1350.9 6.55451C1340.91 -0.3838 1327.93 -3.66001 1312.33 -3.66001V4.33999ZM1346.39 13.1612C1354.51 18.614 1358.49 26.0999 1358.49 36.06H1366.49C1366.49 23.4734 1361.22 13.4793 1350.85 6.51881L1346.39 13.1612ZM1358.49 36.06C1358.49 40.7963 1357.68 44.8591 1356.16 48.3267L1363.49 51.5333C1365.52 46.8942 1366.49 41.7104 1366.49 36.06H1358.49ZM1356.18 48.2837C1354.56 51.8825 1352.62 54.8737 1350.41 57.3093L1356.33 62.6907C1359.18 59.553 1361.55 55.8309 1363.47 51.5763L1356.18 48.2837ZM1350.4 57.3163C1348.14 59.8194 1345.1 62.7458 1341.24 66.1037L1346.5 72.1363C1350.49 68.6542 1353.79 65.5006 1356.33 62.6837L1350.4 57.3163ZM1341.27 66.0767C1336.88 69.8267 1333.46 73.2067 1331.19 76.1958L1337.55 81.0442C1339.33 78.7133 1342.25 75.76 1346.46 72.1633L1341.27 66.0767ZM1331.24 76.1212C1328.62 79.4041 1327.33 83.2747 1327.33 87.55H1335.33C1335.33 84.9853 1336.06 82.9026 1337.49 81.1188L1331.24 76.1212ZM1331.33 83.55H1297.51V91.55H1331.33V83.55ZM1314.42 133.71C1309.1 133.71 1304.99 132.113 1301.76 129.092L1296.29 134.928C1301.18 139.507 1307.32 141.71 1314.42 141.71V133.71ZM1301.81 129.137C1298.52 125.953 1296.95 122.235 1296.95 117.76H1288.95C1288.95 124.431 1291.43 130.214 1296.25 134.883L1301.81 129.137ZM1296.95 117.76C1296.95 113.093 1298.51 109.489 1301.57 106.621L1296.11 100.779C1291.32 105.258 1288.95 111.027 1288.95 117.76H1296.95ZM1301.52 106.664C1304.73 103.762 1308.91 102.19 1314.42 102.19V94.19C1307.26 94.19 1301.06 96.2917 1296.15 100.736L1301.52 106.664ZM1314.42 102.19C1319.93 102.19 1324.11 103.762 1327.31 106.664L1332.68 100.736C1327.78 96.2917 1321.58 94.19 1314.42 94.19V102.19ZM1327.31 106.664C1330.49 109.544 1332.08 113.135 1332.08 117.76H1340.08C1340.08 110.985 1337.61 105.203 1332.68 100.736L1327.31 106.664ZM1332.08 117.76C1332.08 122.235 1330.5 125.953 1327.22 129.137L1332.78 134.883C1337.6 130.214 1340.08 124.431 1340.08 117.76H1332.08ZM1327.26 129.092C1324.06 132.099 1319.89 133.71 1314.42 133.71V141.71C1321.61 141.71 1327.83 139.521 1332.73 134.928L1327.26 129.092Z" fill="#1F82A1"/>
</svg>
