<svg width="1440" height="150" viewBox="0 0 1440 150" fill="none" xmlns="http://www.w3.org/2000/svg">
<path d="M220.44 3.49999L173.905 147H130.445L102.975 59.67L74.275 147H30.815L-15.72 3.49999H26.1L55.005 95.135L85.345 3.49999H122.655L151.56 95.955L181.695 3.49999H220.44ZM377.664 3.49999V147H337.074V91.035H281.724V147H241.134V3.49999H281.724V57.415H337.074V3.49999H377.664ZM489.32 95.545V147H448.73V94.93L393.995 3.49999H436.84L470.87 60.49L504.9 3.49999H544.26L489.32 95.545ZM698.907 149.87C683.737 149.87 670.07 146.658 657.907 140.235C645.88 133.812 636.382 124.928 629.412 113.585C622.578 102.242 619.162 89.4633 619.162 75.25C619.162 61.0367 622.578 48.2583 629.412 36.915C636.382 25.5717 645.88 16.6883 657.907 10.265C670.07 3.84166 683.737 0.629991 698.907 0.629991C714.077 0.629991 727.675 3.84166 739.702 10.265C751.865 16.6883 761.363 25.5717 768.197 36.915C775.167 48.2583 778.652 61.0367 778.652 75.25C778.652 89.4633 775.167 102.242 768.197 113.585C761.363 124.928 751.865 133.812 739.702 140.235C727.675 146.658 714.077 149.87 698.907 149.87ZM698.907 116.25C706.15 116.25 712.71 114.542 718.587 111.125C724.463 107.708 729.11 102.925 732.527 96.775C735.943 90.4883 737.652 83.3133 737.652 75.25C737.652 67.1867 735.943 60.08 732.527 53.93C729.11 47.6433 724.463 42.7917 718.587 39.375C712.71 35.9583 706.15 34.25 698.907 34.25C691.663 34.25 685.103 35.9583 679.227 39.375C673.35 42.7917 668.703 47.6433 665.287 53.93C661.87 60.08 660.162 67.1867 660.162 75.25C660.162 83.3133 661.87 90.4883 665.287 96.775C668.703 102.925 673.35 107.708 679.227 111.125C685.103 114.542 691.663 116.25 698.907 116.25ZM935.621 147L935.211 70.945L898.311 132.855H880.271L843.576 72.995V147H806.061V3.49999H839.476L889.906 86.32L939.106 3.49999H972.521L972.931 147H935.621ZM1080.17 149.87C1065 149.87 1051.33 146.658 1039.17 140.235C1027.14 133.812 1017.64 124.928 1010.67 113.585C1003.84 102.242 1000.42 89.4633 1000.42 75.25C1000.42 61.0367 1003.84 48.2583 1010.67 36.915C1017.64 25.5717 1027.14 16.6883 1039.17 10.265C1051.33 3.84166 1065 0.629991 1080.17 0.629991C1095.34 0.629991 1108.94 3.84166 1120.96 10.265C1133.13 16.6883 1142.62 25.5717 1149.46 36.915C1156.43 48.2583 1159.91 61.0367 1159.91 75.25C1159.91 89.4633 1156.43 102.242 1149.46 113.585C1142.62 124.928 1133.13 133.812 1120.96 140.235C1108.94 146.658 1095.34 149.87 1080.17 149.87ZM1080.17 116.25C1087.41 116.25 1093.97 114.542 1099.85 111.125C1105.72 107.708 1110.37 102.925 1113.79 96.775C1117.2 90.4883 1118.91 83.3133 1118.91 75.25C1118.91 67.1867 1117.2 60.08 1113.79 53.93C1110.37 47.6433 1105.72 42.7917 1099.85 39.375C1093.97 35.9583 1087.41 34.25 1080.17 34.25C1072.92 34.25 1066.36 35.9583 1060.49 39.375C1054.61 42.7917 1049.96 47.6433 1046.55 53.93C1043.13 60.08 1041.42 67.1867 1041.42 75.25C1041.42 83.3133 1043.13 90.4883 1046.55 96.775C1049.96 102.925 1054.61 107.708 1060.49 111.125C1066.36 114.542 1072.92 116.25 1080.17 116.25ZM1253.54 149.87C1232.22 149.87 1215.61 144.062 1203.72 132.445C1191.97 120.828 1186.09 104.36 1186.09 83.04V3.49999H1226.68V81.81C1226.68 104.77 1235.77 116.25 1253.95 116.25C1271.99 116.25 1281.01 104.77 1281.01 81.81V3.49999H1320.98V83.04C1320.98 104.36 1315.04 120.828 1303.15 132.445C1291.39 144.062 1274.86 149.87 1253.54 149.87ZM1383.74 94.725C1383.74 87.8917 1385.24 82.2883 1388.25 77.915C1391.25 73.405 1395.63 68.485 1401.37 63.155C1405.33 59.465 1408.27 56.39 1410.18 53.93C1412.1 51.3333 1413.05 48.6 1413.05 45.73C1413.05 41.7667 1411.34 38.6233 1407.93 36.3C1404.65 33.84 1400.34 32.61 1395.01 32.61C1389.55 32.61 1384.56 33.9083 1380.05 36.505C1375.67 39.1017 1372.12 42.7233 1369.39 47.37L1338.84 30.97C1344.45 21.4033 1352.37 13.955 1362.62 8.625C1372.87 3.29499 1385.24 0.629991 1399.73 0.629991C1415.99 0.629991 1429.04 4.04666 1438.88 10.88C1448.86 17.5767 1453.85 27.0067 1453.85 39.17C1453.85 44.7733 1452.89 49.7617 1450.98 54.135C1449.06 58.3717 1446.74 61.9933 1444.01 65C1441.41 67.87 1437.99 71.15 1433.76 74.84C1429.11 78.8033 1425.69 82.22 1423.51 85.09C1421.32 87.8233 1420.23 91.035 1420.23 94.725H1383.74ZM1401.98 148.845C1395.29 148.845 1389.75 146.795 1385.38 142.695C1381 138.458 1378.82 133.333 1378.82 127.32C1378.82 121.17 1380.94 116.113 1385.17 112.15C1389.55 108.187 1395.15 106.205 1401.98 106.205C1408.82 106.205 1414.42 108.187 1418.79 112.15C1423.17 116.113 1425.35 121.17 1425.35 127.32C1425.35 133.333 1423.17 138.458 1418.79 142.695C1414.42 146.795 1408.82 148.845 1401.98 148.845Z" fill="white"/>
<path d="M220.44 3.49999L224.245 4.73388L225.942 -0.500008H220.44V3.49999ZM173.905 147V151H176.813L177.71 148.234L173.905 147ZM130.445 147L126.629 148.2L127.51 151H130.445V147ZM102.975 59.67L106.791 58.4698L103.058 46.6044L99.175 58.4212L102.975 59.67ZM74.275 147V151H77.1709L78.0751 148.249L74.275 147ZM30.815 147L27.0101 148.234L27.9071 151H30.815V147ZM-15.72 3.49999V-0.500008H-21.2222L-19.5249 4.73388L-15.72 3.49999ZM26.1 3.49999L29.9147 2.29669L29.0325 -0.500008H26.1V3.49999ZM55.005 95.135L51.1903 96.3383L54.9128 108.139L58.8023 96.3923L55.005 95.135ZM85.345 3.49999V-0.500008H82.4558L81.5477 2.24273L85.345 3.49999ZM122.655 3.49999L126.473 2.30641L125.595 -0.500008H122.655V3.49999ZM151.56 95.955L147.742 97.1486L151.481 109.106L155.363 97.1946L151.56 95.955ZM181.695 3.49999V-0.500008H178.792L177.892 2.26041L181.695 3.49999ZM216.635 2.26611L170.1 145.766L177.71 148.234L224.245 4.73388L216.635 2.26611ZM173.905 143H130.445V151H173.905V143ZM134.261 145.8L106.791 58.4698L99.1593 60.8702L126.629 148.2L134.261 145.8ZM99.175 58.4212L70.475 145.751L78.0751 148.249L106.775 60.9188L99.175 58.4212ZM74.275 143H30.815V151H74.275V143ZM34.6199 145.766L-11.9151 2.26611L-19.5249 4.73388L27.0101 148.234L34.6199 145.766ZM-15.72 7.49999H26.1V-0.500008H-15.72V7.49999ZM22.2853 4.70329L51.1903 96.3383L58.8197 93.9317L29.9147 2.29669L22.2853 4.70329ZM58.8023 96.3923L89.1423 4.75726L81.5477 2.24273L51.2077 93.8777L58.8023 96.3923ZM85.345 7.49999H122.655V-0.500008H85.345V7.49999ZM118.837 4.69357L147.742 97.1486L155.378 94.7614L126.473 2.30641L118.837 4.69357ZM155.363 97.1946L185.498 4.73958L177.892 2.26041L147.757 94.7154L155.363 97.1946ZM181.695 7.49999H220.44V-0.500008H181.695V7.49999ZM377.664 3.49999H381.664V-0.500008H377.664V3.49999ZM377.664 147V151H381.664V147H377.664ZM337.074 147H333.074V151H337.074V147ZM337.074 91.035H341.074V87.035H337.074V91.035ZM281.724 91.035V87.035H277.724V91.035H281.724ZM281.724 147V151H285.724V147H281.724ZM241.134 147H237.134V151H241.134V147ZM241.134 3.49999V-0.500008H237.134V3.49999H241.134ZM281.724 3.49999H285.724V-0.500008H281.724V3.49999ZM281.724 57.415H277.724V61.415H281.724V57.415ZM337.074 57.415V61.415H341.074V57.415H337.074ZM337.074 3.49999V-0.500008H333.074V3.49999H337.074ZM373.664 3.49999V147H381.664V3.49999H373.664ZM377.664 143H337.074V151H377.664V143ZM341.074 147V91.035H333.074V147H341.074ZM337.074 87.035H281.724V95.035H337.074V87.035ZM277.724 91.035V147H285.724V91.035H277.724ZM281.724 143H241.134V151H281.724V143ZM245.134 147V3.49999H237.134V147H245.134ZM241.134 7.49999H281.724V-0.500008H241.134V7.49999ZM277.724 3.49999V57.415H285.724V3.49999H277.724ZM281.724 61.415H337.074V53.415H281.724V61.415ZM341.074 57.415V3.49999H333.074V57.415H341.074ZM337.074 7.49999H377.664V-0.500008H337.074V7.49999ZM489.32 95.545L485.885 93.4949L485.32 94.442V95.545H489.32ZM489.32 147V151H493.32V147H489.32ZM448.73 147H444.73V151H448.73V147ZM448.73 94.93H452.73V93.8242L452.162 92.8754L448.73 94.93ZM393.995 3.49999V-0.500008H386.938L390.563 5.55458L393.995 3.49999ZM436.84 3.49999L440.274 1.44928L439.11 -0.500008H436.84V3.49999ZM470.87 60.49L467.436 62.5407L470.87 68.2922L474.304 62.5407L470.87 60.49ZM504.9 3.49999V-0.500008H502.63L501.466 1.44928L504.9 3.49999ZM544.26 3.49999L547.695 5.55009L551.306 -0.500008H544.26V3.49999ZM485.32 95.545V147H493.32V95.545H485.32ZM489.32 143H448.73V151H489.32V143ZM452.73 147V94.93H444.73V147H452.73ZM452.162 92.8754L397.427 1.4454L390.563 5.55458L445.298 96.9846L452.162 92.8754ZM393.995 7.49999H436.84V-0.500008H393.995V7.49999ZM433.406 5.5507L467.436 62.5407L474.304 58.4393L440.274 1.44928L433.406 5.5507ZM474.304 62.5407L508.334 5.5507L501.466 1.44928L467.436 58.4393L474.304 62.5407ZM504.9 7.49999H544.26V-0.500008H504.9V7.49999ZM540.825 1.44989L485.885 93.4949L492.755 97.5951L547.695 5.55009L540.825 1.44989ZM657.907 140.235L656.022 143.763L656.031 143.768L656.039 143.772L657.907 140.235ZM629.412 113.585L625.985 115.649L625.995 115.664L626.004 115.679L629.412 113.585ZM629.412 36.915L626.004 34.8209L625.995 34.8359L625.985 34.851L629.412 36.915ZM657.907 10.265L656.039 6.72791L656.031 6.73228L656.022 6.73669L657.907 10.265ZM739.702 10.265L737.817 13.7933L737.826 13.7977L737.834 13.8021L739.702 10.265ZM768.197 36.915L764.77 38.979L764.78 38.9941L764.789 39.0091L768.197 36.915ZM768.197 113.585L764.789 111.491L764.78 111.506L764.77 111.521L768.197 113.585ZM739.702 140.235L737.834 136.698L737.826 136.702L737.817 136.707L739.702 140.235ZM718.587 111.125L720.597 114.583L718.587 111.125ZM732.527 96.775L736.023 98.7176L736.032 98.7014L736.041 98.6851L732.527 96.775ZM732.527 53.93L729.012 55.84L729.021 55.8564L729.03 55.8726L732.527 53.93ZM718.587 39.375L720.597 35.917V35.917L718.587 39.375ZM679.227 39.375L677.216 35.917L679.227 39.375ZM665.287 53.93L668.783 55.8726L668.792 55.8564L668.801 55.84L665.287 53.93ZM665.287 96.775L661.772 98.6851L661.781 98.7014L661.79 98.7176L665.287 96.775ZM679.227 111.125L681.237 107.667V107.667L679.227 111.125ZM698.907 145.87C684.32 145.87 671.305 142.787 659.775 136.698L656.039 143.772C668.835 150.53 683.154 153.87 698.907 153.87V145.87ZM659.791 136.707C648.375 130.609 639.409 122.214 632.82 111.491L626.004 115.679C633.355 127.642 643.385 137.014 656.022 143.763L659.791 136.707ZM632.838 111.521C626.408 100.846 623.162 88.7913 623.162 75.25H615.162C615.162 90.1354 618.749 103.637 625.985 115.649L632.838 111.521ZM623.162 75.25C623.162 61.7087 626.408 49.6535 632.838 38.979L625.985 34.851C618.749 46.8631 615.162 60.3646 615.162 75.25H623.162ZM632.82 39.0091C639.409 28.2857 648.375 19.8907 659.791 13.7933L656.022 6.73669C643.385 13.486 633.355 22.8577 626.004 34.8209L632.82 39.0091ZM659.775 13.8021C671.305 7.71309 684.32 4.62999 698.907 4.62999V-3.37001C683.154 -3.37001 668.835 -0.0297775 656.039 6.72791L659.775 13.8021ZM698.907 4.62999C713.495 4.62999 726.434 7.71328 737.817 13.7933L741.586 6.73669C728.917 -0.0299683 714.659 -3.37001 698.907 -3.37001V4.62999ZM737.834 13.8021C749.379 19.8992 758.328 28.2842 764.77 38.979L771.623 34.851C764.399 22.8591 754.351 13.4775 741.57 6.72791L737.834 13.8021ZM764.789 39.0091C771.345 49.6796 774.652 61.7239 774.652 75.25H782.652C782.652 60.3494 778.988 46.8371 771.605 34.8209L764.789 39.0091ZM774.652 75.25C774.652 88.776 771.345 100.82 764.789 111.491L771.605 115.679C778.988 103.663 782.652 90.1506 782.652 75.25H774.652ZM764.77 111.521C758.328 122.216 749.379 130.601 737.834 136.698L741.57 143.772C754.351 137.023 764.399 127.641 771.623 115.649L764.77 111.521ZM737.817 136.707C726.433 142.787 713.495 145.87 698.907 145.87V153.87C714.659 153.87 728.917 150.53 741.586 143.763L737.817 136.707ZM698.907 120.25C706.808 120.25 714.07 118.378 720.597 114.583L716.576 107.667C711.35 110.705 705.492 112.25 698.907 112.25V120.25ZM720.597 114.583C727.119 110.791 732.27 105.474 736.023 98.7176L729.03 94.8324C725.951 100.376 721.808 104.625 716.576 107.667L720.597 114.583ZM736.041 98.6851C739.815 91.741 741.652 83.8946 741.652 75.25H733.652C733.652 82.7321 732.072 89.2357 729.012 94.8649L736.041 98.6851ZM741.652 75.25C741.652 66.6074 739.816 58.8137 736.023 51.9874L729.03 55.8726C732.071 61.3463 733.652 67.7659 733.652 75.25H741.652ZM736.041 52.0199C732.294 45.1246 727.142 39.7218 720.597 35.917L716.576 42.833C721.785 45.8615 725.926 50.1621 729.012 55.84L736.041 52.0199ZM720.597 35.917C714.07 32.1219 706.808 30.25 698.907 30.25V38.25C705.492 38.25 711.35 39.7947 716.576 42.833L720.597 35.917ZM698.907 30.25C691.005 30.25 683.744 32.1219 677.216 35.917L681.237 42.833C686.463 39.7947 692.322 38.25 698.907 38.25V30.25ZM677.216 35.917C670.672 39.7218 665.52 45.1246 661.772 52.0199L668.801 55.84C671.887 50.1621 676.028 45.8615 681.237 42.833L677.216 35.917ZM661.79 51.9874C657.998 58.8137 656.162 66.6074 656.162 75.25H664.162C664.162 67.7659 665.742 61.3463 668.783 55.8726L661.79 51.9874ZM656.162 75.25C656.162 83.8946 657.998 91.741 661.772 98.6851L668.801 94.8649C665.742 89.2357 664.162 82.7321 664.162 75.25H656.162ZM661.79 98.7176C665.544 105.474 670.694 110.791 677.216 114.583L681.237 107.667C676.006 104.625 671.863 100.376 668.783 94.8324L661.79 98.7176ZM677.216 114.583C683.744 118.378 691.005 120.25 698.907 120.25V112.25C692.322 112.25 686.463 110.705 681.237 107.667L677.216 114.583ZM935.621 147L931.621 147.022L931.642 151H935.621V147ZM935.211 70.945L939.211 70.9234L939.133 56.5512L931.775 68.8971L935.211 70.945ZM898.311 132.855V136.855H900.583L901.747 134.903L898.311 132.855ZM880.271 132.855L876.861 134.946L878.031 136.855H880.271V132.855ZM843.576 72.995L846.986 70.9045L839.576 58.8163V72.995H843.576ZM843.576 147V151H847.576V147H843.576ZM806.061 147H802.061V151H806.061V147ZM806.061 3.49999V-0.500008H802.061V3.49999H806.061ZM839.476 3.49999L842.892 1.41966L841.724 -0.500008H839.476V3.49999ZM889.906 86.32L886.49 88.4003L889.948 94.0806L893.345 88.3629L889.906 86.32ZM939.106 3.49999V-0.500008H936.83L935.667 1.45705L939.106 3.49999ZM972.521 3.49999L976.521 3.48856L976.51 -0.500008H972.521V3.49999ZM972.931 147V151H976.942L976.931 146.989L972.931 147ZM939.621 146.978L939.211 70.9234L931.211 70.9666L931.621 147.022L939.621 146.978ZM931.775 68.8971L894.875 130.807L901.747 134.903L938.647 72.9929L931.775 68.8971ZM898.311 128.855H880.271V136.855H898.311V128.855ZM883.681 130.764L846.986 70.9045L840.166 75.0855L876.861 134.946L883.681 130.764ZM839.576 72.995V147H847.576V72.995H839.576ZM843.576 143H806.061V151H843.576V143ZM810.061 147V3.49999H802.061V147H810.061ZM806.061 7.49999H839.476V-0.500008H806.061V7.49999ZM836.059 5.58031L886.49 88.4003L893.322 84.2397L842.892 1.41966L836.059 5.58031ZM893.345 88.3629L942.545 5.54293L935.667 1.45705L886.467 84.2771L893.345 88.3629ZM939.106 7.49999H972.521V-0.500008H939.106V7.49999ZM968.521 3.51142L968.931 147.011L976.931 146.989L976.521 3.48856L968.521 3.51142ZM972.931 143H935.621V151H972.931V143ZM1039.17 140.235L1037.28 143.763L1037.29 143.768L1037.3 143.772L1039.17 140.235ZM1010.67 113.585L1007.25 115.649L1007.25 115.664L1007.26 115.679L1010.67 113.585ZM1010.67 36.915L1007.26 34.8209L1007.25 34.8359L1007.25 34.851L1010.67 36.915ZM1039.17 10.265L1037.3 6.72791L1037.29 6.73228L1037.28 6.73669L1039.17 10.265ZM1120.96 10.265L1119.08 13.7933L1119.09 13.7977L1119.09 13.8021L1120.96 10.265ZM1149.46 36.915L1146.03 38.979L1146.04 38.9941L1146.05 39.0091L1149.46 36.915ZM1149.46 113.585L1146.05 111.491L1146.04 111.506L1146.03 111.521L1149.46 113.585ZM1120.96 140.235L1119.09 136.698L1119.09 136.702L1119.08 136.707L1120.96 140.235ZM1099.85 111.125L1101.86 114.583L1099.85 111.125ZM1113.79 96.775L1117.28 98.7176L1117.29 98.7014L1117.3 98.6851L1113.79 96.775ZM1113.79 53.93L1110.27 55.84L1110.28 55.8564L1110.29 55.8726L1113.79 53.93ZM1099.85 39.375L1101.86 35.917V35.917L1099.85 39.375ZM1060.49 39.375L1058.48 35.917L1060.49 39.375ZM1046.55 53.93L1050.04 55.8726L1050.05 55.8564L1050.06 55.84L1046.55 53.93ZM1046.55 96.775L1043.03 98.6851L1043.04 98.7014L1043.05 98.7176L1046.55 96.775ZM1060.49 111.125L1062.5 107.667V107.667L1060.49 111.125ZM1080.17 145.87C1065.58 145.87 1052.56 142.787 1041.03 136.698L1037.3 143.772C1050.1 150.53 1064.41 153.87 1080.17 153.87V145.87ZM1041.05 136.707C1029.63 130.609 1020.67 122.214 1014.08 111.491L1007.26 115.679C1014.61 127.642 1024.65 137.014 1037.28 143.763L1041.05 136.707ZM1014.1 111.521C1007.67 100.846 1004.42 88.7913 1004.42 75.25H996.422C996.422 90.1354 1000.01 103.637 1007.25 115.649L1014.1 111.521ZM1004.42 75.25C1004.42 61.7087 1007.67 49.6535 1014.1 38.979L1007.25 34.851C1000.01 46.8631 996.422 60.3646 996.422 75.25H1004.42ZM1014.08 39.0091C1020.67 28.2857 1029.63 19.8907 1041.05 13.7933L1037.28 6.73669C1024.65 13.486 1014.61 22.8577 1007.26 34.8209L1014.08 39.0091ZM1041.03 13.8021C1052.56 7.71309 1065.58 4.62999 1080.17 4.62999V-3.37001C1064.41 -3.37001 1050.1 -0.0297775 1037.3 6.72791L1041.03 13.8021ZM1080.17 4.62999C1094.75 4.62999 1107.69 7.71328 1119.08 13.7933L1122.85 6.73669C1110.18 -0.0299683 1095.92 -3.37001 1080.17 -3.37001V4.62999ZM1119.09 13.8021C1130.64 19.8992 1139.59 28.2842 1146.03 38.979L1152.88 34.851C1145.66 22.8591 1135.61 13.4775 1122.83 6.72791L1119.09 13.8021ZM1146.05 39.0091C1152.61 49.6796 1155.91 61.7239 1155.91 75.25H1163.91C1163.91 60.3494 1160.25 46.8371 1152.86 34.8209L1146.05 39.0091ZM1155.91 75.25C1155.91 88.776 1152.61 100.82 1146.05 111.491L1152.86 115.679C1160.25 103.663 1163.91 90.1506 1163.91 75.25H1155.91ZM1146.03 111.521C1139.59 122.216 1130.64 130.601 1119.09 136.698L1122.83 143.772C1135.61 137.023 1145.66 127.641 1152.88 115.649L1146.03 111.521ZM1119.08 136.707C1107.69 142.787 1094.75 145.87 1080.17 145.87V153.87C1095.92 153.87 1110.18 150.53 1122.85 143.763L1119.08 136.707ZM1080.17 120.25C1088.07 120.25 1095.33 118.378 1101.86 114.583L1097.84 107.667C1092.61 110.705 1086.75 112.25 1080.17 112.25V120.25ZM1101.86 114.583C1108.38 110.791 1113.53 105.474 1117.28 98.7176L1110.29 94.8324C1107.21 100.376 1103.07 104.625 1097.84 107.667L1101.86 114.583ZM1117.3 98.6851C1121.08 91.741 1122.91 83.8946 1122.91 75.25H1114.91C1114.91 82.7321 1113.33 89.2357 1110.27 94.8649L1117.3 98.6851ZM1122.91 75.25C1122.91 66.6074 1121.08 58.8137 1117.28 51.9874L1110.29 55.8726C1113.33 61.3463 1114.91 67.7659 1114.91 75.25H1122.91ZM1117.3 52.0199C1113.55 45.1246 1108.4 39.7218 1101.86 35.917L1097.84 42.833C1103.05 45.8615 1107.19 50.1621 1110.27 55.84L1117.3 52.0199ZM1101.86 35.917C1095.33 32.1219 1088.07 30.25 1080.17 30.25V38.25C1086.75 38.25 1092.61 39.7947 1097.84 42.833L1101.86 35.917ZM1080.17 30.25C1072.27 30.25 1065 32.1219 1058.48 35.917L1062.5 42.833C1067.72 39.7947 1073.58 38.25 1080.17 38.25V30.25ZM1058.48 35.917C1051.93 39.7218 1046.78 45.1246 1043.03 52.0199L1050.06 55.84C1053.15 50.1621 1057.29 45.8615 1062.5 42.833L1058.48 35.917ZM1043.05 51.9874C1039.26 58.8137 1037.42 66.6074 1037.42 75.25H1045.42C1045.42 67.7659 1047 61.3463 1050.04 55.8726L1043.05 51.9874ZM1037.42 75.25C1037.42 83.8946 1039.26 91.741 1043.03 98.6851L1050.06 94.8649C1047 89.2357 1045.42 82.7321 1045.42 75.25H1037.42ZM1043.05 98.7176C1046.8 105.474 1051.95 110.791 1058.48 114.583L1062.5 107.667C1057.27 104.625 1053.12 100.376 1050.04 94.8324L1043.05 98.7176ZM1058.48 114.583C1065 118.378 1072.27 120.25 1080.17 120.25V112.25C1073.58 112.25 1067.72 110.705 1062.5 107.667L1058.48 114.583ZM1203.72 132.445L1200.91 135.29L1200.92 135.298L1200.93 135.306L1203.72 132.445ZM1186.09 3.49999V-0.500008H1182.09V3.49999H1186.09ZM1226.68 3.49999H1230.68V-0.500008H1226.68V3.49999ZM1281.01 3.49999V-0.500008H1277.01V3.49999H1281.01ZM1320.98 3.49999H1324.98V-0.500008H1320.98V3.49999ZM1303.15 132.445L1300.35 129.584L1300.34 129.592L1300.33 129.6L1303.15 132.445ZM1253.54 145.87C1232.95 145.87 1217.46 140.28 1206.52 129.584L1200.93 135.306C1213.76 147.843 1231.48 153.87 1253.54 153.87V145.87ZM1206.53 129.6C1195.74 118.936 1190.09 103.616 1190.09 83.04H1182.09C1182.09 105.104 1188.19 122.721 1200.91 135.29L1206.53 129.6ZM1190.09 83.04V3.49999H1182.09V83.04H1190.09ZM1186.09 7.49999H1226.68V-0.500008H1186.09V7.49999ZM1222.68 3.49999V81.81H1230.68V3.49999H1222.68ZM1222.68 81.81C1222.68 93.7101 1225.02 103.374 1230.36 110.123C1235.84 117.05 1243.96 120.25 1253.95 120.25V112.25C1245.76 112.25 1240.24 109.71 1236.63 105.157C1232.89 100.426 1230.68 92.8699 1230.68 81.81H1222.68ZM1253.95 120.25C1263.87 120.25 1271.94 117.042 1277.39 110.111C1282.69 103.364 1285.01 93.7049 1285.01 81.81H1277.01C1277.01 92.875 1274.81 100.436 1271.1 105.169C1267.52 109.718 1262.06 112.25 1253.95 112.25V120.25ZM1285.01 81.81V3.49999H1277.01V81.81H1285.01ZM1281.01 7.49999H1320.98V-0.500008H1281.01V7.49999ZM1316.98 3.49999V83.04H1324.98V3.49999H1316.98ZM1316.98 83.04C1316.98 103.603 1311.27 118.917 1300.35 129.584L1305.94 135.306C1318.8 122.739 1324.98 105.117 1324.98 83.04H1316.98ZM1300.33 129.6C1289.53 140.279 1274.12 145.87 1253.54 145.87V153.87C1275.59 153.87 1293.26 147.844 1305.96 135.29L1300.33 129.6ZM1383.74 94.725H1379.74V98.725H1383.74V94.725ZM1388.25 77.915L1391.54 80.1811L1391.56 80.1576L1391.58 80.1338L1388.25 77.915ZM1401.37 63.155L1404.09 66.0862L1404.09 66.0826L1401.37 63.155ZM1410.18 53.93L1413.34 56.3858L1413.37 56.3447L1413.4 56.3028L1410.18 53.93ZM1407.93 36.3L1405.53 39.5L1405.6 39.5556L1405.68 39.6077L1407.93 36.3ZM1380.05 36.505L1378.05 33.0385L1378.03 33.0519L1378.01 33.0656L1380.05 36.505ZM1369.39 47.37L1367.5 50.8942L1370.89 52.714L1372.84 49.3981L1369.39 47.37ZM1338.84 30.97L1335.39 28.9484L1333.29 32.5304L1336.95 34.4941L1338.84 30.97ZM1362.62 8.625L1364.47 12.1739L1362.62 8.625ZM1438.88 10.88L1436.6 14.1655L1436.63 14.1835L1436.65 14.2012L1438.88 10.88ZM1450.98 54.135L1454.62 55.7813L1454.63 55.7599L1454.64 55.7383L1450.98 54.135ZM1444.01 65L1441.05 62.3093L1441.04 62.3163L1444.01 65ZM1433.76 74.84L1436.35 77.8833L1436.37 77.8699L1436.39 77.8563L1433.76 74.84ZM1423.51 85.09L1426.63 87.5888L1426.66 87.5518L1426.69 87.5142L1423.51 85.09ZM1420.23 94.725V98.725H1424.23V94.725H1420.23ZM1385.38 142.695L1382.59 145.568L1382.62 145.591L1382.64 145.613L1385.38 142.695ZM1385.17 112.15L1382.49 109.186L1382.46 109.207L1382.44 109.229L1385.17 112.15ZM1418.79 112.15L1416.11 115.114L1418.79 112.15ZM1418.79 142.695L1421.53 145.613L1421.55 145.591L1421.58 145.568L1418.79 142.695ZM1387.74 94.725C1387.74 88.4693 1389.11 83.7194 1391.54 80.1811L1384.95 75.6489C1381.37 80.8573 1379.74 87.3141 1379.74 94.725H1387.74ZM1391.58 80.1338C1394.35 75.9712 1398.49 71.2887 1404.09 66.0862L1398.65 60.2238C1392.77 65.6813 1388.16 70.8388 1384.92 75.6962L1391.58 80.1338ZM1404.09 66.0826C1408.12 62.3364 1411.23 59.0932 1413.34 56.3858L1407.03 51.4742C1405.3 53.6867 1402.55 56.5936 1398.64 60.2274L1404.09 66.0826ZM1413.4 56.3028C1415.76 53.1078 1417.05 49.5583 1417.05 45.73H1409.05C1409.05 47.6417 1408.44 49.5588 1406.96 51.5572L1413.4 56.3028ZM1417.05 45.73C1417.05 40.3765 1414.63 36.0226 1410.18 32.9923L1405.68 39.6077C1408.06 41.2241 1409.05 43.1568 1409.05 45.73H1417.05ZM1410.33 33.1C1406.17 29.9837 1400.95 28.61 1395.01 28.61V36.61C1399.74 36.61 1403.12 37.6963 1405.53 39.5L1410.33 33.1ZM1395.01 28.61C1388.88 28.61 1383.2 30.0744 1378.05 33.0385L1382.04 39.9715C1385.92 37.7422 1390.21 36.61 1395.01 36.61V28.61ZM1378.01 33.0656C1373.02 36.0274 1368.99 40.1498 1365.94 45.3419L1372.84 49.3981C1375.25 45.2968 1378.33 42.176 1382.09 39.9444L1378.01 33.0656ZM1371.28 43.8458L1340.74 27.4458L1336.95 34.4941L1367.5 50.8942L1371.28 43.8458ZM1342.29 32.9916C1347.5 24.1033 1354.86 17.1716 1364.47 12.1739L1360.78 5.07613C1349.89 10.7384 1341.39 18.7034 1335.39 28.9484L1342.29 32.9916ZM1364.47 12.1739C1374.02 7.20606 1385.72 4.62999 1399.73 4.62999V-3.37001C1384.76 -3.37001 1371.72 -0.616074 1360.78 5.07613L1364.47 12.1739ZM1399.73 4.62999C1415.46 4.62999 1427.63 7.93712 1436.6 14.1655L1441.16 7.59451C1430.45 0.156197 1416.52 -3.37001 1399.73 -3.37001V4.62999ZM1436.65 14.2012C1445.51 20.144 1449.85 28.3199 1449.85 39.17H1457.85C1457.85 25.6934 1452.21 15.0093 1441.11 7.55881L1436.65 14.2012ZM1449.85 39.17C1449.85 44.3163 1448.97 48.7441 1447.31 52.5317L1454.64 55.7383C1456.81 50.7792 1457.85 45.2304 1457.85 39.17H1449.85ZM1447.33 52.4886C1445.57 56.3975 1443.46 59.6537 1441.05 62.3093L1446.97 67.6907C1450.02 64.333 1452.56 60.3459 1454.62 55.7813L1447.33 52.4886ZM1441.04 62.3163C1438.59 65.0294 1435.3 68.1958 1431.13 71.8237L1436.39 77.8563C1440.69 74.1042 1444.24 70.7106 1446.97 67.6837L1441.04 62.3163ZM1431.16 71.7967C1426.43 75.8367 1422.76 79.4667 1420.33 82.6658L1426.69 87.5142C1428.63 84.9733 1431.8 81.77 1436.35 77.8833L1431.16 71.7967ZM1420.38 82.5912C1417.6 86.0741 1416.23 90.1797 1416.23 94.725H1424.23C1424.23 91.8903 1425.04 89.5726 1426.63 87.5888L1420.38 82.5912ZM1420.23 90.725H1383.74V98.725H1420.23V90.725ZM1401.98 144.845C1396.17 144.845 1391.66 143.098 1388.11 139.777L1382.64 145.613C1387.85 150.492 1394.4 152.845 1401.98 152.845V144.845ZM1388.16 139.822C1384.55 136.328 1382.82 132.235 1382.82 127.32H1374.82C1374.82 134.432 1377.45 140.589 1382.59 145.568L1388.16 139.822ZM1382.82 127.32C1382.82 122.203 1384.53 118.229 1387.91 115.071L1382.44 109.229C1377.34 113.998 1374.82 120.137 1374.82 127.32H1382.82ZM1387.86 115.114C1391.38 111.922 1395.98 110.205 1401.98 110.205V102.205C1394.32 102.205 1387.71 104.452 1382.49 109.186L1387.86 115.114ZM1401.98 110.205C1407.99 110.205 1412.58 111.922 1416.11 115.114L1421.48 109.186C1416.26 104.452 1409.64 102.205 1401.98 102.205V110.205ZM1416.11 115.114C1419.6 118.284 1421.35 122.245 1421.35 127.32H1429.35C1429.35 120.095 1426.73 113.943 1421.48 109.186L1416.11 115.114ZM1421.35 127.32C1421.35 132.235 1419.62 136.328 1416.01 139.822L1421.58 145.568C1426.72 140.589 1429.35 134.432 1429.35 127.32H1421.35ZM1416.06 139.777C1412.53 143.084 1407.95 144.845 1401.98 144.845V152.845C1409.68 152.845 1416.31 150.506 1421.53 145.613L1416.06 139.777Z" fill="#1F82A1"/>
</svg>
