<svg width="253" height="295" viewBox="0 0 253 295" fill="none" xmlns="http://www.w3.org/2000/svg">
<path d="M107.12 2L86.69 65H67.61L55.55 26.66L42.95 65H23.87L3.44 2H21.8L34.49 42.23L47.81 2H64.19L76.88 42.59L90.11 2H107.12ZM173.445 2V65H155.625V40.43H131.325V65H113.505V2H131.325V25.67H155.625V2H173.445ZM217.785 66.26C211.125 66.26 205.125 64.85 199.785 62.03C194.505 59.21 190.335 55.31 187.275 50.33C184.275 45.35 182.775 39.74 182.775 33.5C182.775 27.26 184.275 21.65 187.275 16.67C190.335 11.69 194.505 7.79 199.785 4.97C205.125 2.15 211.125 0.739996 217.785 0.739996C224.445 0.739996 230.415 2.15 235.695 4.97C241.035 7.79 245.205 11.69 248.205 16.67C251.265 21.65 252.795 27.26 252.795 33.5C252.795 39.74 251.265 45.35 248.205 50.33C245.205 55.31 241.035 59.21 235.695 62.03C230.415 64.85 224.445 66.26 217.785 66.26ZM217.785 51.5C220.965 51.5 223.845 50.75 226.425 49.25C229.005 47.75 231.045 45.65 232.545 42.95C234.045 40.19 234.795 37.04 234.795 33.5C234.795 29.96 234.045 26.84 232.545 24.14C231.045 21.38 229.005 19.25 226.425 17.75C223.845 16.25 220.965 15.5 217.785 15.5C214.605 15.5 211.725 16.25 209.145 17.75C206.565 19.25 204.525 21.38 203.025 24.14C201.525 26.84 200.775 29.96 200.775 33.5C200.775 37.04 201.525 40.19 203.025 42.95C204.525 45.65 206.565 47.75 209.145 49.25C211.725 50.75 214.605 51.5 217.785 51.5ZM153.84 104L124.33 195H96.77L79.35 139.62L61.15 195H33.59L4.08 104H30.6L48.93 162.11L68.17 104H91.83L110.16 162.63L129.27 104H153.84ZM240.023 175.11V195H166.963V104H238.333V123.89H192.443V139.23H232.873V158.47H192.443V175.11H240.023ZM55.9 281.4H26.3L20.8 295H0.6L31.5 225H51L82 295H61.4L55.9 281.4ZM50.1 266.8L41.1 244.4L32.1 266.8H50.1ZM128.213 276.4H117.413V295H97.6133V225H129.613C135.947 225 141.447 226.067 146.113 228.2C150.78 230.267 154.38 233.267 156.913 237.2C159.447 241.067 160.713 245.633 160.713 250.9C160.713 255.967 159.513 260.4 157.113 264.2C154.78 267.933 151.413 270.867 147.013 273L162.113 295H140.913L128.213 276.4ZM140.713 250.9C140.713 247.633 139.68 245.1 137.613 243.3C135.547 241.5 132.48 240.6 128.413 240.6H117.413V261.1H128.413C132.48 261.1 135.547 260.233 137.613 258.5C139.68 256.7 140.713 254.167 140.713 250.9ZM237.837 279.7V295H181.637V225H236.537V240.3H201.237V252.1H232.337V266.9H201.237V279.7H237.837Z" fill="#43B5D9" fill-opacity="0.5"/>
</svg>
